<svg xmlns="http://www.w3.org/2000/svg">
    <defs>
        <symbol id="materials" viewBox="0 0 64 80" x="0px" y="0px">
            <path d="M19,43V8a1,1,0,0,0-.3-.71A.9.9,0,0,0,17.991,7l-8,.071a1,1,0,0,0-.589.2L7.282,8.849a1,1,0,0,0-.107,1.51L8.225,11.4l-1.188.883A1,1,0,0,0,6.93,13.8l1.047,1.039-1.185.88a1,1,0,0,0-.107,1.512L7.73,18.27l-1.181.876a1,1,0,0,0-.109,1.513L7.485,21.7l-1.18.874a1,1,0,0,0-.11,1.514l1.047,1.038L6.059,26a1,1,0,0,0-.108,1.513L7,28.551l-1.184.879a1,1,0,0,0-.106,1.513l1.045,1.036-1.183.877a1,1,0,0,0-.107,1.513L6.507,35.4l-1.182.875a1,1,0,0,0-.108,1.514l1.046,1.036-1.182.877a1,1,0,0,0-.107,1.514l1.043,1.032L5.007,43H5a3,3,0,0,0-3,3V61a1,1,0,0,0,1,1H5a3,3,0,0,0,3-3,1,1,0,0,1,1-1h6a1,1,0,0,1,1,1,3,3,0,0,0,3,3h2a1,1,0,0,0,1-1V46A3,3,0,0,0,19,43ZM8.253,41.65,7.209,40.617l1.181-.876A1,1,0,0,0,8.5,38.229L7.453,37.192l1.181-.874a1,1,0,0,0,.108-1.513L7.7,33.769,8.88,32.89a1,1,0,0,0,.106-1.514L7.941,30.341l1.183-.878a1,1,0,0,0,.107-1.513L8.186,26.913l1.183-.879a1,1,0,0,0,.108-1.513L8.432,23.485l1.179-.874a1,1,0,0,0,.11-1.513L8.675,20.06l1.182-.878a1,1,0,0,0,.109-1.513L8.919,16.63l1.185-.88a1,1,0,0,0,.107-1.513L9.163,13.2l1.186-.882a1,1,0,0,0,.108-1.511L9.406,9.759l.927-.691L17,9.009V43H8.289a.982.982,0,0,0,.258-.567A1,1,0,0,0,8.253,41.65ZM20,60H19a1,1,0,0,1-1-1,3,3,0,0,0-3-3H9a3,3,0,0,0-3,3,1,1,0,0,1-1,1H4V46a1,1,0,0,1,1-1H19a1,1,0,0,1,1,1Z"/>
            <path d="M17,47H7a1,1,0,0,0-1,1v2a3,3,0,0,0,3,3h6a3,3,0,0,0,3-3V48A1,1,0,0,0,17,47Zm-1,3a1,1,0,0,1-1,1H9a1,1,0,0,1-1-1V49h8Z"/>
            <rect x="12" y="11" width="2" height="2"/>
            <path d="M60,3H58a1.91,1.91,0,0,0-2,1.8V5H54V4a1,1,0,0,0-1-1H40.56a2.989,2.989,0,0,0-2.911,2.269l-1.019,4.1A20.922,20.922,0,0,0,36,14.46V18a1,1,0,0,0,1.447.895l2.34-1.17A3.976,3.976,0,0,0,42,14.15V13h2V27a1,1,0,0,0-1,1V47a3,3,0,0,0,3,3h2a3,3,0,0,0,3-3V28a1,1,0,0,0-1-1V13h3a1,1,0,0,0,1-1V11h2v.2A1.91,1.91,0,0,0,58,13h2a1.91,1.91,0,0,0,2-1.8V4.8A1.91,1.91,0,0,0,60,3ZM49,47a1,1,0,0,1-1,1H46a1,1,0,0,1-1-1V29h4ZM46,27V18h2v9Zm6-16H49a1,1,0,0,0-1,1v4H46V12a1,1,0,0,0-1-1H41a1,1,0,0,0-1,1v2.15a1.987,1.987,0,0,1-1.107,1.786L38,16.382V14.46a18.894,18.894,0,0,1,.57-4.608l1.021-4.1A.993.993,0,0,1,40.56,5H52Zm2-4h2V9H54Zm6,4-2-.017V5l2,.017Z"/>
            <path d="M33,49a4,4,0,1,0,4,4A4,4,0,0,0,33,49Zm0,6a2,2,0,1,1,2-2A2,2,0,0,1,33,55Z"/>
            <path d="M53,60H42V53a8.949,8.949,0,0,0-1.554-5.049,3.983,3.983,0,0,0-.862-6.165A13.554,13.554,0,0,0,37.3,40.727a3.916,3.916,0,0,0-3.6.514,4.034,4.034,0,0,0-1.671,2.814A9,9,0,0,0,33,62H54a1,1,0,0,0,1-1V58H53ZM34.856,42.872a1.945,1.945,0,0,1,1.779-.26,11.5,11.5,0,0,1,1.932.9,1.99,1.99,0,0,1,.559,2.917,8.956,8.956,0,0,0-5.072-2.359A2,2,0,0,1,34.856,42.872ZM40,60H33a7,7,0,1,1,7-7Z"/>
            <path d="M26,44a1,1,0,0,0,.929-.629l2-5A1,1,0,0,0,29,38V16a3,3,0,0,0-6,0V38a1,1,0,0,0,.071.371l2,5A1,1,0,0,0,26,44Zm-1-8V19h2V36Zm1,4.308L25.077,38h1.846ZM26,15a1,1,0,0,1,1,1v1H25V16A1,1,0,0,1,26,15Z"/>
            <path d="M33,38h6a1,1,0,0,0,1-1V28a2,2,0,0,0-2-2H34a2,2,0,0,0-2,2v9A1,1,0,0,0,33,38Zm1-2V32h4v4Zm4-8v2H34V28Z"/>
            <rect x="46" y="31" width="2" height="2"/>
        </symbol>
    </defs>
</svg>