<svg xmlns="http://www.w3.org/2000/svg">
  <defs>
    <symbol id="icon-hammer" viewBox="0 0 100 125">
      <path d="M62.73,14.31l-0.3-0.2c-1.98-1.29-4.96-3.25-9.25-3.85c-3.14-0.44-9.21-0.2-9.47-0.19c-0.32,0.01-0.64,0.14-0.88,0.35  c-0.02,0.02-2.19,1.85-4.41,1.78c-2.25-0.06-4.02-1.58-4.04-1.59c-0.26-0.23-0.6-0.36-0.96-0.36h-5.38c-0.8,0-1.45,0.65-1.45,1.45  v10.34c0,0.8,0.65,1.45,1.45,1.45h5.45c0.32,0,0.63-0.11,0.88-0.3c0.68-0.53,2.07-1.43,3.96-1.38c1.83,0.02,4.1,0.89,5.04,2.78  c0.37,0.74,0.52,1.62,0.44,2.54c0,0.01,0,0.02,0,0.04c0,0.01,0,0.03-0.01,0.04l-2,57.47c-0.05,1.41,0.46,2.75,1.44,3.76  c0.98,1.01,2.3,1.57,3.71,1.57h6.25c1.41,0,2.73-0.56,3.71-1.57c0.98-1.02,1.49-2.35,1.44-3.76l-2-57.47c0,0,0-0.01,0-0.01  c0,0,0-0.01,0-0.01c-0.1-2.12,0.27-4.54,0.77-5.01c0.04,0.01,0.09,0.01,0.14,0.02c2.34,0.38,5.03,2,8.46,5.09l5.24,4.85  c0.27,0.25,0.63,0.38,0.98,0.38c0.2,0,0.39-0.04,0.58-0.12c0.53-0.23,0.87-0.75,0.87-1.32v-2.58c0-1.59-0.43-3.13-1.25-4.45  C69.68,20.05,66.51,16.78,62.73,14.31z M55.48,84.77c0.02,0.62-0.2,1.2-0.63,1.65c-0.43,0.45-1.01,0.69-1.63,0.69h-6.25  c-0.62,0-1.2-0.25-1.63-0.69c-0.43-0.45-0.66-1.03-0.63-1.65l1.95-56.08h6.88L55.48,84.77C55.48,84.77,55.48,84.77,55.48,84.77z   M67.69,25.14c-3.93-3.53-6.99-5.33-9.94-5.81c-0.22-0.04-0.44-0.07-0.69-0.07c-0.24,0-0.49,0.03-0.77,0.12  c-2.28,0.71-2.78,4.04-2.83,6.41h-6.78c-0.09-0.89-0.34-1.74-0.72-2.51c-1.59-3.19-5.08-4.35-7.59-4.38  c-2.37-0.02-4.25,0.94-5.34,1.68h-3.54v-7.45h3.44c0.87,0.64,2.9,1.88,5.42,1.95c2.63,0.06,5-1.45,5.94-2.14  c1.47-0.05,6.08-0.16,8.49,0.18c3.64,0.51,6.2,2.18,8.06,3.4l0.31,0.2c3.43,2.23,6.3,5.21,8.55,8.83c0.4,0.65,0.66,1.38,0.77,2.15  L67.69,25.14z"/>
    </symbol>

    <symbol id="icon-saw" viewBox="0 0 100 125">
      <path d="M69.98535,61.02441a1.25014,1.25014,0,0,0-1.73047-.36279L45.21777,75.70508a1.25027,1.25027,0,0,0-.36328,1.73l8.93066,13.67676A4.95662,4.95662,0,0,0,56.94727,93.27a5.05412,5.05412,0,0,0,1.0498.11133,4.94725,4.94725,0,0,0,2.71484-.8125l16.752-10.93848a4.96864,4.96864,0,0,0,2.15137-3.11768l.01172-.04932a4.97357,4.97357,0,0,0-.71-3.76172Zm7.20117,16.894-.00879.03711a2.48558,2.48558,0,0,1-1.08105,1.58154l-16.752,10.939a2.51714,2.51714,0,0,1-3.46582-.731L47.63184,77.11475,68.5752,63.438l8.248,12.63037A2.48971,2.48971,0,0,1,77.18652,77.91846Z"/>
      <path d="M21.252,12.65674l-.8125,1.38086a1.24958,1.24958,0,0,0,.72559,1.833l2.35938.69141L22.28125,18.6875a1.24991,1.24991,0,0,0,.72754,1.83105l2.35742.69043L24.124,23.3291a1.24943,1.24943,0,0,0,.72656,1.83154l2.36133.68457-1.249,2.12793a1.25043,1.25043,0,0,0,.72461,1.83154l2.3623.69678-1.24414,2.11914a1.25036,1.25036,0,0,0,.72656,1.83252l2.36328.68311-1.248,2.127a1.25,1.25,0,0,0,.72656,1.832l2.36426.68652-1.24707,2.12793a1.24978,1.24978,0,0,0,.72559,1.83154l2.36328.68408-1.25,2.12939a1.25039,1.25039,0,0,0,.72559,1.832l2.36719.68311-1.25293,2.13232a1.25,1.25,0,0,0,.72754,1.833l2.36426.67969-1.249,2.13623a1.2504,1.2504,0,0,0,.72852,1.83057l2.36133.67822-1.24707,2.13477A1.25076,1.25076,0,0,0,39.583,62.3252l2.35645.688-1.24609,2.125a1.2491,1.2491,0,0,0,.72754,1.832l2.36621.68164-1.25,2.1333a1.24878,1.24878,0,0,0,.72754,1.83154l2.40137.6958a1.23011,1.23011,0,0,0,.60742,1.3999,1.20366,1.20366,0,0,0,.58887.15234A1.30361,1.30361,0,0,0,47.97559,73.23a2.18173,2.18173,0,0,0-.77734-2.99756,2.09,2.09,0,0,0-.54492-.23l-1.14941-.33594.63672-1.0874a2.19743,2.19743,0,0,0-.78711-2.99707,2.26327,2.26327,0,0,0-.54492-.22607l-1.14844-.33545.63574-1.084a2.19075,2.19075,0,0,0-.75977-2.98828,1.90116,1.90116,0,0,0-.56836-.23535L41.82031,60.376l.63184-1.08057a2.16652,2.16652,0,0,0,.23633-1.65625,2.202,2.202,0,0,0-1.04687-1.36572,2.09778,2.09778,0,0,0-.5127-.20508l-1.15039-.33691.63477-1.084A2.19892,2.19892,0,0,0,39.832,51.647a2.028,2.028,0,0,0-.54687-.22607l-1.14746-.33545.64063-1.09033a2.20473,2.20473,0,0,0-.78711-2.99219,2.04037,2.04037,0,0,0-.5459-.22461l-1.14844-.33838.6416-1.09326a2.18548,2.18548,0,0,0-1.334-3.21582L34.457,41.79395l.63574-1.085a2.18781,2.18781,0,0,0-.7793-2.99365,2.09345,2.09345,0,0,0-.55273-.23242L32.61426,37.147l.63086-1.07617a2.18506,2.18506,0,0,0-.78223-3.00537,2.05219,2.05219,0,0,0-.54395-.22461l-1.14551-.33594.6416-1.09277a2.19785,2.19785,0,0,0-.791-2.99219,2.17064,2.17064,0,0,0-.584-.23291l-1.11133-.32764.63672-1.084a2.18534,2.18534,0,0,0-.78027-2.998,2.08351,2.08351,0,0,0-.54785-.229l-1.14746-.33643.63379-1.08154A2.19236,2.19236,0,0,0,26.3584,18.895l-1.11133-.32568.63379-1.0835a2.18122,2.18122,0,0,0-.75879-2.98291,2.01151,2.01151,0,0,0-.56543-.2417l-.98437-.28955,6.80859-4.4458a2.513,2.513,0,0,1,3.46582.72754l32.458,49.70752a1.2503,1.2503,0,0,0,2.09375-1.36719L35.94043,8.88623a5.01409,5.01409,0,0,0-6.92676-1.45361l-7.36816,4.81152A1.2472,1.2472,0,0,0,21.252,12.65674Z"/>
    </symbol>

    <symbol id="icon-glue" viewBox="0 0 100 125">
      <path d="M37.07,89.05C41.36,89.68,45.68,90,50,90s8.64-0.32,12.93-0.95c2.26-0.34,3.96-2.36,3.96-4.7V41.4  c0-2.36-1.66-4.33-3.96-4.7c-1.27-0.2-2.43-0.34-3.55-0.45v-6.59c0-0.04-0.02-0.07-0.02-0.11c0-0.02,0.01-0.05,0-0.07  c0-0.02-0.02-0.03-0.02-0.05c-0.01-0.02-0.02-0.04-0.03-0.06c-0.45-1.27-2.49-1.95-4.32-2.31l-2.6-16.5  C52.34,10.24,52.06,10,51.74,10h-3.48c-0.32,0-0.6,0.24-0.65,0.56l-2.6,16.5c-1.84,0.36-3.87,1.03-4.32,2.31  c-0.01,0.02-0.02,0.04-0.03,0.06c-0.01,0.02-0.02,0.03-0.02,0.05c-0.01,0.02,0,0.05,0,0.07c-0.01,0.04-0.02,0.07-0.02,0.11v6.59  c-1.12,0.11-2.28,0.25-3.55,0.45c-2.29,0.36-3.96,2.34-3.96,4.7v42.95C33.1,86.69,34.81,88.71,37.07,89.05z M48.82,11.32h2.35  l2.54,16.09c-0.41,0.27-1.7,0.66-3.72,0.66c-2.02,0-3.31-0.39-3.72-0.66L48.82,11.32z M45.35,28.34c0.91,0.77,2.97,1.06,4.65,1.06  s3.74-0.29,4.65-1.06c2.02,0.38,3.05,0.94,3.36,1.32c-0.47,0.61-2.64,1.47-6.25,1.69c-0.01,0-0.01,0-0.02,0  c-0.02,0-0.03,0.01-0.05,0.01c-0.53,0.03-1.1,0.05-1.69,0.05s-1.16-0.02-1.69-0.05c-0.02,0-0.03-0.01-0.05-0.01  c-0.01,0-0.01,0-0.02,0c-3.6-0.22-5.77-1.08-6.25-1.69C42.3,29.28,43.33,28.72,45.35,28.34z M58.08,31.21v5.5  c-0.12,0.34-0.86,0.8-2.18,1.18v-5.84C56.75,31.83,57.49,31.55,58.08,31.21z M54.58,32.33v5.86c-0.64,0.12-1.38,0.22-2.18,0.29V32.6  C53.14,32.54,53.88,32.46,54.58,32.33z M51.08,32.69v5.87c-0.36,0.01-0.7,0.03-1.08,0.03s-0.72-0.02-1.08-0.03v-5.87  c0.36,0.01,0.72,0.03,1.08,0.03S50.72,32.7,51.08,32.69z M47.6,32.6v5.87c-0.8-0.07-1.54-0.16-2.18-0.29v-5.86  C46.12,32.46,46.86,32.54,47.6,32.6z M41.92,31.21c0.59,0.34,1.33,0.62,2.18,0.84v5.84c-1.32-0.38-2.06-0.84-2.18-1.18V31.21z   M34.42,41.4c0-1.68,1.22-3.14,2.84-3.39c1.31-0.21,2.5-0.35,3.66-0.46c1.16,1.61,5.33,2.36,9.08,2.36s7.93-0.75,9.08-2.36  c1.15,0.11,2.35,0.25,3.65,0.46c1.62,0.26,2.84,1.72,2.84,3.39v16.19h-6.43c-1.94-3.2-5.4-5.19-9.15-5.19s-7.2,1.98-9.15,5.19h-6.43  V41.4z M34.42,58.9h6.78c0.03,0,0.05-0.01,0.08-0.02c0.05-0.01,0.1-0.01,0.15-0.03c0.03-0.01,0.06-0.03,0.09-0.05  c0.04-0.02,0.09-0.05,0.13-0.08c0.03-0.02,0.05-0.05,0.07-0.08c0.02-0.03,0.05-0.05,0.07-0.08c1.67-2.99,4.81-4.85,8.22-4.85  s6.55,1.86,8.22,4.85c0.01,0.02,0.03,0.03,0.05,0.05c0.04,0.06,0.09,0.11,0.16,0.16c0.03,0.02,0.05,0.04,0.08,0.05  c0.09,0.04,0.18,0.07,0.28,0.08c0,0,0.01,0,0.01,0c0,0,0,0,0,0c0,0,0,0,0,0h6.78v8.39h-6.7c-0.02,0-0.03,0-0.05,0h-0.03  c-0.01,0-0.01,0-0.02,0c-0.08,0-0.15,0.02-0.22,0.04c-0.01,0.01-0.02,0.01-0.04,0.02c-0.06,0.03-0.12,0.07-0.17,0.12  c-0.01,0.01-0.02,0.03-0.04,0.04c-0.03,0.03-0.07,0.06-0.09,0.11c-1.67,2.99-4.81,4.85-8.22,4.85s-6.55-1.86-8.22-4.85  c-0.02-0.04-0.06-0.07-0.09-0.11c-0.01-0.01-0.02-0.03-0.03-0.04c-0.05-0.05-0.11-0.09-0.18-0.12c-0.01,0-0.02-0.01-0.03-0.01  c-0.08-0.03-0.15-0.05-0.24-0.05c0,0-0.01,0-0.01,0h-0.02c-0.02,0-0.05,0-0.07,0h-6.7V58.9z M34.42,68.61h6.44  c1.94,3.2,5.4,5.18,9.14,5.18s7.2-1.98,9.14-5.18h6.44v15.74c0,1.69-1.22,3.15-2.84,3.39c-8.46,1.26-17.03,1.26-25.48,0  c-1.62-0.24-2.84-1.7-2.84-3.39V68.61z"/>
      <path d="M50,69.18c2.24,0,4.05-1.82,4.05-4.05c0-2-3.13-7.22-3.49-7.81c-0.24-0.39-0.89-0.39-1.13,0c-0.36,0.59-3.49,5.81-3.49,7.81  C45.95,67.37,47.76,69.18,50,69.18z M50,58.96c1.23,2.14,2.73,5.11,2.73,6.17c0,1.51-1.23,2.73-2.73,2.73s-2.73-1.23-2.73-2.73  C47.27,64.07,48.77,61.11,50,58.96z"/>
    </symbol>

    <symbol id="icon-screws" viewBox="-5.0 -10.0 110.0 135.0">
      <path d="m41.785 78.297v-6.1328c-0.95312 0.12109-1.875-0.47656-2.1289-1.4336-0.27734-1.0391 0.33984-2.1133 1.3789-2.3906l0.75-0.19922v-6.1328c-0.95312 0.12109-1.875-0.47656-2.1289-1.4336-0.27734-1.0391 0.33984-2.1133 1.3789-2.3906l0.75-0.19922v-6.1328c-0.95312 0.12109-1.875-0.47656-2.1289-1.4336-0.27734-1.0391 0.33984-2.1133 1.3789-2.3906l0.75-0.19922v-6.1328c-0.95312 0.12109-1.875-0.47656-2.1289-1.4336-0.27734-1.0391 0.33984-2.1133 1.3789-2.3906l0.75-0.19922v-6.1328c-0.95312 0.12109-1.875-0.47656-2.1289-1.4336-0.27734-1.0391 0.33984-2.1133 1.3789-2.3906l0.75-0.19922v-9.8828l-5.9883-10.402c-0.34766-0.60547-0.34766-1.3477 0-1.9531 0.34766-0.60156 0.99219-0.97656 1.6914-0.97656h24.992c0.69531 0 1.3398 0.37109 1.6914 0.97656 0.34766 0.60156 0.35156 1.3477 0 1.9531l-5.9883 10.402v5.5078c0.95312-0.12109 1.875 0.47656 2.1289 1.4336 0.27734 1.0391-0.33984 2.1133-1.3789 2.3906l-0.75 0.19922v6.1328c0.95312-0.12109 1.875 0.47656 2.1289 1.4336 0.27734 1.0391-0.33984 2.1133-1.3789 2.3906l-0.75 0.19922v6.1328c0.95312-0.12109 1.875 0.47656 2.1289 1.4336 0.27734 1.0391-0.33984 2.1133-1.3789 2.3906l-0.75 0.19922v6.1328c0.95312-0.12109 1.875 0.47656 2.1289 1.4336 0.27734 1.0391-0.33984 2.1133-1.3789 2.3906l-0.75 0.19922v6.1328c0.95312-0.12109 1.875 0.47656 2.1289 1.4336 0.27734 1.0391-0.33984 2.1133-1.3789 2.3906l-0.75 0.19922v6.1328c0.95312-0.12109 1.875 0.47656 2.1289 1.4336 0.27734 1.0391-0.33984 2.1133-1.3789 2.3906l-0.75 0.19922v9.5312c0 0.51953-0.20703 1.0156-0.57031 1.3789l-6.25 6.25c-0.76172 0.76172-2 0.76172-2.7617 0l-6.2461-6.25c-0.36719-0.36719-0.57031-0.86328-0.57031-1.3789v-5.1523c-0.95312 0.12109-1.875-0.47656-2.1289-1.4336-0.27734-1.0391 0.33984-2.1133 1.3789-2.3906l0.75-0.19922zm12.496-3.3477v-6.1133l-8.5898 2.3008v6.1133zm-8.5898 6.3438v5.3711s4.2969 4.2969 4.2969 4.2969l4.2969-4.2969v-7.6758l-8.5898 2.3008zm8.5898-26.66v-6.1133l-8.5898 2.3008v6.1133zm0-20.316v-6.1133l-8.5898 2.3008v6.1133zm0 10.156v-6.1133l-8.5898 2.3008v6.1133zm0 20.316v-6.1133l-8.5898 2.3008v6.1133zm0-40.633v-7.0547c0-0.34375 0.089844-0.67969 0.26172-0.97266l4.5625-7.9258h-18.238l4.5625 7.9258c0.17187 0.29688 0.26172 0.63281 0.26172 0.97266v9.3594l8.5898-2.3008z" fill-rule="evenodd"/>
    </symbol>

    <symbol id="icon-nails" viewBox="0 0 100 125">
      <path d="M90.611,17.692c-2.894,0-3.918,6.349-4.246,12.287l-44.016,0.02l-23.822,3.782c-0.754,0.12-1.309,0.769-1.309,1.532  s0.555,1.412,1.309,1.532l24.065,3.801h43.772c0.328,5.94,1.353,12.29,4.246,12.29c3.819,0,4.389-11.042,4.389-17.623  S94.431,17.692,90.611,17.692z M86.227,37.543l-43.392,0.02L28.642,35.31l13.951-2.227h43.634V37.543z M90.611,48.581  c-0.615-2.191-1.281-6.677-1.281-13.268c0-6.589,0.666-11.072,1.281-13.267c0.615,2.192,1.285,6.677,1.285,13.267  C91.896,41.904,91.227,46.39,90.611,48.581z"/>
      <path d="M78.392,47.063c-2.897,0-3.922,6.35-4.249,12.29L30.13,59.37L6.308,63.153C5.555,63.274,5,63.923,5,64.687  s0.555,1.412,1.31,1.533l24.063,3.798h43.771c0.327,5.94,1.352,12.29,4.249,12.29c3.818,0,4.389-11.041,4.389-17.624  C82.78,58.104,82.21,47.063,78.392,47.063z M74.003,66.914l-43.388,0.019l-14.19-2.252l13.947-2.225h43.631V66.914z M78.392,77.958  c-0.615-2.194-1.285-6.68-1.285-13.274c0-6.592,0.67-11.08,1.285-13.271c0.615,2.191,1.285,6.68,1.285,13.271  C79.677,71.278,79.007,75.764,78.392,77.958z"/>
    </symbol>

    <symbol id="icon-lumber" viewBox="-5.0 -10.0 110.0 135.0">
      <path d="m95.824 50.457c0.25391-0.49219 0.058593-1.0938-0.43359-1.3477-0.49219-0.25-1.0938-0.058594-1.3438 0.43359l-17.566 34.281h-69.777l29.738-58.047c0.25-0.49219 0.058594-1.0938-0.43359-1.3477-0.49219-0.25-1.0938-0.054688-1.3477 0.43359l-30.484 59.504c-0.003906 0.011718-0.003906 0.023437-0.011719 0.035156-0.027343 0.058594-0.039062 0.125-0.054687 0.19141s-0.039063 0.12891-0.039063 0.19531c0 0.011719-0.007812 0.023438-0.007812 0.035157v11.23c0 0.55078 0.44922 1 1 1h72.027c0.011718 0 0.023437-0.007813 0.039062-0.007813 0.10156-0.003906 0.19922-0.027344 0.29297-0.058594 0.039063-0.015625 0.078125-0.03125 0.11719-0.050781 0.070313-0.035156 0.13281-0.078125 0.19531-0.12891 0.027344-0.023438 0.058594-0.039063 0.082031-0.066406 0.066406-0.066407 0.12109-0.14453 0.16797-0.23438l0.027344-0.054687c0.003906-0.003906 0.003906-0.011719 0.007812-0.015625l17.805-34.75c0.25391-0.49219 0.058593-1.0938-0.43359-1.3438-0.49219-0.25391-1.0938-0.058594-1.3438 0.43359l-15.953 31.125v-6.8438zm-89.758 35.367h70.027v9.2305h-70.027z"/>
      <path d="m95.391 24.434c-0.48828-0.25-1.0938-0.058594-1.3438 0.43359l-24.211 47.246-0.003907-6.8477 25.992-50.723c0.25391-0.49219 0.058593-1.0938-0.43359-1.3477-0.49219-0.25-1.0938-0.058593-1.3438 0.43359l-25.828 50.406h-44.48l25.359-49.492c0.25-0.49219 0.058594-1.0938-0.43359-1.3477-0.49219-0.25-1.0938-0.058593-1.3477 0.43359l-26.105 50.945c-0.007813 0.015625-0.007813 0.03125-0.011719 0.046875-0.019531 0.042968-0.027344 0.09375-0.039063 0.14062-0.023437 0.082031-0.046875 0.16016-0.050781 0.24219 0 0.011719-0.003906 0.019532-0.003906 0.027344v11.23c0 0.55078 0.44922 1 1 1h46.727c0.023438 0 0.042969-0.011719 0.066407-0.011719 0.085937-0.007812 0.17187-0.023438 0.25391-0.050781 0.046875-0.015625 0.089844-0.035157 0.13281-0.054688 0.0625-0.03125 0.11719-0.070312 0.17188-0.11328 0.035157-0.027344 0.070313-0.046875 0.10156-0.082031 0.0625-0.066407 0.12109-0.14453 0.16406-0.23047l0.023438-0.046875c0.003906-0.007813 0.007812-0.015625 0.011718-0.023437l26.066-50.867c0.25-0.49609 0.054687-1.0977-0.43359-1.3477zm-72.285 41.602h44.727v9.2305h-44.727z"/>
      <path d="m38.301 44.645c-0.027343 0.0625-0.039062 0.12891-0.054687 0.19531-0.015625 0.0625-0.035156 0.125-0.039063 0.19141 0 0.011719-0.007812 0.023438-0.007812 0.035156v11.23c0 0.55078 0.44922 1 1 1h21.43c0.011719 0 0.019532-0.007813 0.03125-0.007813 0.10547-0.003906 0.20703-0.027343 0.30469-0.0625 0.035156-0.011718 0.070312-0.027343 0.10547-0.042968 0.078126-0.039063 0.15234-0.085938 0.21875-0.14453 0.019532-0.015624 0.042969-0.03125 0.058594-0.046874 0.066406-0.070313 0.125-0.14844 0.17188-0.23828l21.062-41.121c0.25391-0.49219 0.058594-1.0938-0.43359-1.3477-0.49219-0.25-1.0938-0.054687-1.3438 0.43359l-19.176 37.43v-6.8438l20.953-40.906c0.25391-0.49219 0.058594-1.0938-0.43359-1.3477-0.49219-0.25-1.0938-0.054687-1.3438 0.43359l-20.789 40.582h-19.18l20.316-39.668c0.25391-0.49219 0.058594-1.0938-0.43359-1.3477-0.49219-0.25-1.0938-0.054687-1.3438 0.43359l-21.062 41.121c-0.007812 0.015625-0.007812 0.027343-0.011719 0.039062zm21.328 10.652h-19.43v-9.2305h19.43z"/>
    </symbol>

    <symbol id="icon-paint" viewBox="0 0 8.995833 11.244792375">
      <path style="color:#000000;paint-order:fill markers stroke;" d="m 0.97972917,-3.3333334e-7 c -0.399132,0 -0.728596,0.32946200333334 -0.728596,0.72859700333334 V 1.8478447 c 0,0.399133 0.329464,0.728078 0.728596,0.728078 H 7.0498102 c 0.399133,0 0.728597,-0.328945 0.728597,-0.728078 v -0.437675 h 0.319858 c 0.06901,0 0.117299,0.04626 0.117299,0.11523 v 1.431356 c 0,0.06897 -0.04829,0.117299 -0.117299,0.117299 h -2.96864 -0.700693 c -0.371626,0 -0.680022,0.306327 -0.680022,0.677956 v 0.8986 c -0.431028,0.117678 -0.751849,0.513866 -0.751849,0.980246 v 2.347527 c 0,0.558239 0.459204,1.01745 1.017452,1.01745 0.558246,0 1.015899,-0.459211 1.015899,-1.01745 v -2.347527 c 0,-0.467079 -0.320294,-0.863743 -0.75185,-0.980762 v -0.898084 c 0,-0.08763 0.06272,-0.14882 0.15037,-0.14882 h 0.700693 2.96864 c 0.352979,0 0.646435,-0.293454 0.646435,-0.646435 v -1.431356 c 0,-0.352982 -0.293456,-0.64436603 -0.646435,-0.64436603 h -0.319858 v -0.152437 c 0,-0.399135 -0.329464,-0.72859700333333 -0.728597,-0.72859700333333 z m 0,0.52965300333334 H 7.0498102 c 0.115164,0 0.198945,0.08382 0.198945,0.198944 V 1.8478447 c 0,0.115124 -0.08378,0.198942 -0.198945,0.198942 H 0.97972917 c -0.115161,0 -0.20101,-0.08382 -0.20101,-0.198942 V 0.72859667 c 0,-0.115127 0.08584,-0.198944 0.20101,-0.198944 z M 4.0145132,5.1446097 c 0.274275,0 0.486247,0.212017 0.486247,0.486247 v 2.347527 c 0,0.27423 -0.211972,0.488313 -0.486247,0.488313 -0.274278,0 -0.488315,-0.214083 -0.488315,-0.488313 v -2.347527 c 0,-0.27423 0.214037,-0.486247 0.488315,-0.486247 z" fill="#000000" fill-rule="evenodd" stroke-width="0.999943" stroke-linecap="round" stroke-linejoin="round"/>
    </symbol>

    <symbol id="icon-drill" viewBox="0 0 100 125">
      <path d="M81.253,19.483H38.565c-0.857,0-1.552,0.694-1.552,1.552v0.252l-6.376,1.275c-0.724,0.146-1.246,0.782-1.246,1.521v1.776  l-6.376,1.275c-0.725,0.146-1.246,0.782-1.246,1.521v3.021H6.552C5.694,31.679,5,32.373,5,33.23c0,0.858,0.694,1.552,1.552,1.552  h15.217v3.021c0,0.74,0.521,1.376,1.246,1.521l6.376,1.276v1.779c0,0.739,0.521,1.376,1.249,1.521l6.374,1.272v0.252  c0,0.857,0.694,1.552,1.552,1.552h13.696V50c0,0.857,0.694,1.552,1.552,1.552h3.864l4.931,25.861h-1.745  c-0.858,0-1.552,0.693-1.552,1.552c0,0.857,0.693,1.552,1.552,1.552h3.621h14.999h0.246c0.464,0,0.899-0.206,1.193-0.564  c0.298-0.354,0.419-0.824,0.331-1.278l-5.171-27.122h2.482c0.857,0,1.552-0.694,1.552-1.552v-3.021h1.137  C88.832,46.979,95,40.811,95,33.228C95,25.651,88.832,19.483,81.253,19.483z M24.873,36.531v-6.601l4.519-0.906v8.41L24.873,36.531z   M32.495,41.107v-1.778V27.13v-1.775l4.519-0.903v17.56L32.495,41.107z M77.853,77.413H65.769l-4.931-25.861h12.083L77.853,77.413z   M77.013,48.448H55.364v-1.47h21.648V48.448z M81.253,43.875H40.117V22.587h41.136c5.87,0,10.644,4.773,10.644,10.641  C91.896,39.099,87.123,43.875,81.253,43.875z"/>
      <path d="M84.302,27.105H73.631c-0.858,0-1.552,0.694-1.552,1.552c0,0.858,0.693,1.552,1.552,1.552h10.671  c0.857,0,1.552-0.693,1.552-1.552C85.854,27.8,85.159,27.105,84.302,27.105z"/>
      <path d="M84.302,33.203H73.631c-0.858,0-1.552,0.694-1.552,1.552c0,0.858,0.693,1.552,1.552,1.552h10.671  c0.857,0,1.552-0.693,1.552-1.552C85.854,33.897,85.159,33.203,84.302,33.203z"/>
    </symbol>

    <symbol id="icon-circsaw" viewBox="-5.0 -10.0 110.0 135.0">
      <path d="m22.086 25.703c-0.34766 0-0.68359-0.19531-0.84766-0.52734l-0.88672-1.8125c-0.40234-0.83203-0.45703-1.7734-0.15234-2.6523 0.30469-0.87891 0.92969-1.5859 1.7578-1.9883l6.4375-3.0938c0.8125-0.40625 1.75-0.46875 2.625-0.16797 0.88281 0.30469 1.5898 0.9375 1.9961 1.7812l1.1094 2.2773c0.22656 0.46875 0.035156 1.0312-0.43359 1.2617s-1.0352 0.035156-1.2617-0.43359l-1.1133-2.2812c-0.1875-0.39062-0.50781-0.67969-0.91016-0.81641-0.39062-0.13672-0.8125-0.10547-1.1797 0.078125l-6.4453 3.1016c-0.375 0.17969-0.65625 0.50391-0.79688 0.90625-0.14062 0.40234-0.11719 0.83203 0.066406 1.2109l0.88672 1.8086c0.22656 0.46875 0.035156 1.0312-0.43359 1.2617-0.14062 0.054687-0.28125 0.085937-0.41797 0.085937z"/>
      <path d="m64.969 80.664c-0.35938 0.26563-0.47266 0.69922-0.35938 1.1133 0.88672 3.0938 0.30078 6.4727-1.6406 9.0742-0.45312 0.62109-1.3945 0.56641-1.7734-0.09375l-2.2266-3.8867c0.35938-1.6602 0.32031-3.4141-0.15234-5.0938-0.13281-0.41406 0-0.84766 0.33984-1.1133 1.2266-1.0195 2.3789-2.1328 3.4141-3.3594 0.33984-0.37891 0.88672-0.49219 1.3398-0.22656l3.0391 1.7539c-0.62109 0.64453-1.2812 1.2656-1.9805 1.832z"/>
      <path d="m62.117 92.23c-0.035157 0-0.074219 0-0.10938-0.003907-0.68359-0.035156-1.293-0.41016-1.6289-1l-2.2266-3.8867c-0.11328-0.20312-0.15234-0.44141-0.10156-0.66797 0.33203-1.5352 0.28516-3.1406-0.13672-4.6406-0.24219-0.76172 0.015626-1.6016 0.66797-2.1133 1.2188-1.0117 2.3281-2.1055 3.2734-3.2227 0.67578-0.75 1.707-0.91406 2.5352-0.42969l3.0312 1.75c0.25 0.14453 0.42188 0.39844 0.46094 0.6875 0.039063 0.28906-0.054687 0.57812-0.25781 0.78516-0.70703 0.73047-1.3828 1.3516-2.0664 1.9062-0.011719 0.007813-0.023438 0.019531-0.035156 0.027344-0.027344 0.019531-0.015626 0.074219-0.007813 0.10547 0.96875 3.3828 0.29688 7.082-1.7969 9.8906-0.36328 0.51172-0.96094 0.8125-1.6016 0.8125zm-2.1523-5.5195 2.0508 3.582h0.16406 0.035156c1.7461-2.3359 2.3008-5.4219 1.4922-8.25-0.22266-0.8125 0.046875-1.6328 0.68359-2.1172 0.33984-0.27734 0.67578-0.57031 1.0156-0.89062l-1.9648-1.1328c-1.1641 1.2227-2.3555 2.3906-3.6797 3.4922 0.44141 1.7969 0.51953 3.5898 0.20312 5.3164zm5.0039-6.0469h0.019531z"/>
      <path d="m73.328 70.57c2.3203 2.2461 3.5078 5.4336 3.1328 8.6797-0.074219 0.77344-0.94531 1.1875-1.6055 0.79297l-4.1523-2.4141c-0.11328-2.6797-1.2461-5.207-3.168-7.0547-0.32031-0.30078-0.43359-0.73438-0.26562-1.1523 0.56641-1.4727 1.0195-3.0195 1.3203-4.6055 0.09375-0.50781 0.52734-0.88672 1.0391-0.88672h5.793c-0.50781 0-0.92578 0.37891-1.0195 0.88672-0.32031 1.6055-0.75391 3.1328-1.3398 4.6211-0.14844 0.39453-0.035156 0.84766 0.26562 1.1328z"/>
      <path d="m75.406 81.137c-0.35938 0-0.71484-0.097657-1.0352-0.28906l-4.1406-2.4102c-0.27734-0.16016-0.45312-0.45312-0.46875-0.77734-0.10547-2.4531-1.125-4.7305-2.8828-6.418-0.60156-0.56641-0.79688-1.4297-0.48438-2.1875 0.55469-1.4492 0.98438-2.9414 1.2656-4.4219 0.17969-0.95703 1.0039-1.6562 1.9648-1.6562h5.793c0.51953 0 0.94531 0.42188 0.94531 0.94531 0 0.51953-0.42188 0.94531-0.94531 0.94531-0.4375 1.8438-0.89062 3.4062-1.4805 4.9102 0.003906 0.003906 0.039062 0.10547 0.042969 0.10938 2.5781 2.4961 3.8242 5.9453 3.4141 9.4648-0.066406 0.66406-0.46875 1.2539-1.082 1.5625-0.28906 0.15234-0.59766 0.22266-0.90625 0.22266zm-3.793-4.0742 3.7188 2.1641c0-0.003906 0.19141-0.082031 0.19141-0.085937 0.33984-2.9297-0.69531-5.8047-2.8438-7.8867-0.57813-0.54688-0.77734-1.4102-0.49609-2.1523 0.52344-1.3359 0.93359-2.7188 1.2461-4.2305h-3.7969c-0.41406 1.707-0.875 3.3125-1.4766 4.8867 2.0117 2.0273 3.2188 4.5664 3.457 7.3047z"/>
      <path d="m82.348 62.457c0.30078 0.67969-0.20703 1.4727-0.98047 1.4727h-5.8125c0.77344 0 1.3008-0.79297 1-1.4922-0.39453-0.90625-0.92578-1.7539-1.5469-2.4922h5.7734c0.66016 0.75781 1.1523 1.5859 1.5664 2.5117z"/>
      <path d="m81.367 64.871h-5.8125c-0.51953 0-0.94531-0.42188-0.94531-0.94531 0-0.51953 0.42188-0.94531 0.94531-0.94531l1-0.54688-0.86328 0.37891c-0.35547-0.8125-0.83984-1.5938-1.4023-2.2578-0.23828-0.28125-0.28906-0.67188-0.13672-1.0078 0.15625-0.33203 0.48828-0.54688 0.85547-0.54688h5.7734c0.27344 0 0.53125 0.11719 0.71094 0.32031 0.67969 0.77734 1.2266 1.6484 1.7188 2.7461v0.003906c0.27344 0.60938 0.21484 1.3164-0.15625 1.8828-0.37109 0.57422-1.0039 0.91797-1.6875 0.91797zm-3.7891-1.8867h3.7852l0.98047-0.52734-0.85938 0.38672c-0.34375-0.76562-0.71484-1.3984-1.1484-1.9531h-3.5117c0.21875 0.375 0.41797 0.76562 0.59375 1.168 0.12891 0.29688 0.18359 0.61328 0.16016 0.92578z"/>
      <path d="m80.855 37.605c2.6797 4.6211 4.4336 9.8477 4.9258 15.473h-5.793c-1.168-12.848-8.7734-23.848-19.566-29.719l3.3203-5.6016c0.94531-1.5859 2.9805-2.1328 4.5664-1.1875l1.4727 0.84766c-0.09375 0.11328-0.16797 0.22656-0.24609 0.33984l-3.3203 5.6055c3.0742 1.6602 5.9062 3.7539 8.3945 6.1875z"/>
      <path d="m85.781 54.023h-5.793c-0.48828 0-0.89453-0.37109-0.94141-0.85938-1.1172-12.254-8.2461-23.086-19.078-28.973-0.22656-0.12109-0.39062-0.33203-0.45703-0.57812-0.066407-0.24609-0.03125-0.51172 0.097656-0.73047l3.3203-5.6016c0.58594-0.98438 1.5156-1.6836 2.6133-1.9727 1.1055-0.29297 2.2617-0.12891 3.2461 0.45703l1.4609 0.84375c0.24219 0.14062 0.40625 0.375 0.45703 0.65234 0.050781 0.26562-0.023437 0.54297-0.19922 0.75781-0.070312 0.085938-0.12891 0.17578-0.1875 0.26172l-2.8008 4.7266c2.8086 1.6094 5.4102 3.582 7.75 5.8672l6.332 8.1523c0.027344 0.03125 0.050782 0.066406 0.070313 0.10547 2.8633 4.9375 4.5625 10.277 5.0469 15.863 0.023438 0.26172-0.066406 0.52344-0.24219 0.71875-0.17969 0.19531-0.42969 0.30859-0.69531 0.30859zm-4.9414-1.8867h3.8945c-0.57031-4.918-2.1367-9.6211-4.6641-14l-6.207-8.0078c-2.3633-2.2969-5.1172-4.3281-8.0977-5.9375-0.22656-0.12109-0.39062-0.33203-0.46094-0.57812-0.066407-0.24609-0.03125-0.51172 0.097656-0.73438l3.0469-5.1406-0.61328-0.35547c-0.55469-0.32812-1.1914-0.42187-1.8125-0.25781-0.61719 0.16406-1.1406 0.55859-1.4727 1.1133l-2.8281 4.7695c10.66 6.1445 17.734 16.922 19.117 29.129z"/>
      <path d="m95.289 56.512c0 0.94531-0.39453 1.793-1.0195 2.4336-0.64062 0.62109-1.4922 1-2.4336 1h-5.7891c0.94531 0 1.793-0.37891 2.4336-1 0.62109-0.64062 1-1.4922 1-2.4336-0.019531-1.9258-1.6406-3.4336-3.5469-3.4336h5.793c1.9023 0 3.5469 1.5117 3.5625 3.4336z"/>
      <path d="m91.84 60.891h-5.793c-0.51953 0-0.94531-0.42188-0.94531-0.94531 0-0.51953 0.42188-0.94531 0.94531-0.94531 0.66797 0 1.2812-0.25391 1.7773-0.73438 0.46094-0.47266 0.71484-1.0898 0.71484-1.7578-0.015624-1.3672-1.1836-2.4883-2.6055-2.4883-0.51953 0-0.94531-0.42188-0.94531-0.94531 0-0.51953 0.42188-0.94531 0.94531-0.94531h5.793c2.4609 0 4.4844 1.9609 4.5078 4.3672v0.007812c0 1.1406-0.45703 2.2383-1.2852 3.0898-0.86328 0.84766-1.9609 1.2969-3.1094 1.2969zm-2.1914-1.8867h2.1914c0.66797 0 1.2812-0.25391 1.7773-0.73438 0.46484-0.47656 0.73047-1.1055 0.73437-1.7539-0.015624-1.375-1.1914-2.4961-2.6211-2.4961h-2.1172c0.50391 0.70312 0.80469 1.5586 0.8125 2.4805-0.003906 0.90625-0.27344 1.7695-0.77734 2.5039z"/>
      <path d="m69.801 7.3633c-1.0391-0.58594-2.1328-1.0195-3.2461-1.2812 2.9609-0.69922 6.1875-0.33984 9.0391 1.2812l17.34 9.7734c2.0938 1.1875 2.8672 3.8477 1.7344 6-0.8125 1.5078-2.3594 2.3594-3.9609 2.3594-0.75391 0-1.5273-0.1875-2.2266-0.60547l-0.71875-0.41406c0.43359-0.35937 0.8125-0.8125 1.0938-1.3398 1.1523-2.1523 0.37891-4.8125-1.7344-6z"/>
      <path d="m90.707 26.438c-0.96094 0-1.8984-0.25391-2.7109-0.73438l-0.70703-0.41016c-0.26562-0.15625-0.44141-0.42969-0.46875-0.73828-0.023437-0.30859 0.10156-0.60938 0.33984-0.80469 0.35547-0.29297 0.64453-0.64844 0.86328-1.0586 0.91406-1.707 0.3125-3.7852-1.3672-4.7344l-17.32-9.7734c-0.96484-0.54297-1.9727-0.94531-3-1.1875-0.42578-0.10156-0.72656-0.48047-0.72656-0.91797s0.30078-0.81641 0.72656-0.91797c3.3281-0.78125 6.7812-0.29297 9.7227 1.3828l17.336 9.7734c2.5625 1.4531 3.4844 4.6406 2.1094 7.2617-0.95312 1.7656-2.7891 2.8594-4.7969 2.8594zm-1.4336-2.1953c1.6133 0.73828 3.7109 0.035156 4.5664-1.5547 0.89453-1.7031 0.29688-3.7852-1.3711-4.7305l-17.336-9.7734c-1.3984-0.79688-2.9297-1.2812-4.5078-1.4414l16.961 9.5703c2.582 1.4531 3.5078 4.6445 2.1055 7.2656-0.125 0.23438-0.26562 0.45312-0.41797 0.66406z"/>
      <path d="m39.273 95.203c-0.38672 0-0.77344-0.11328-1.1094-0.33203-0.57031-0.375-0.91016-1-0.91016-1.6758v-5.832c-1.707-0.38672-3.2539-0.80078-4.707-1.3438-2.5703 2.4609-5.9492 3.6367-9.375 3.2617-0.66797-0.066406-1.2539-0.46875-1.5625-1.0781-0.3125-0.61719-0.29297-1.3398 0.054687-1.9414l2.7344-4.75c-1.3281-1.2148-2.5703-2.4453-3.7305-3.8047-3.4414 0.78125-6.9141 0.097657-9.6523-1.9062-0.53906-0.39062-0.83984-1.0234-0.8125-1.6953 0.03125-0.6875 0.40234-1.3125 0.99609-1.668l4.6953-2.6875c-0.58594-1.7461-1.043-3.418-1.3672-5.2617-2.3555-0.76562-4.3164-2.1055-5.7734-3.957-0.32422-0.41016-0.25-1.0039 0.16016-1.3242 0.41016-0.32422 1.0039-0.25 1.3242 0.16016 1.2148 1.5469 2.8516 2.6602 4.7344 3.2266 0.74219 0.21094 1.2734 0.79688 1.4141 1.5664 0.30469 1.7305 0.72656 3.2891 1.293 4.7734 0.35547 0.92578 0.003906 1.9609-0.83984 2.4531l-4.6875 2.6836-0.023438 0.21094c2.2852 1.6719 5.1836 2.2422 7.9531 1.5625 0.76953-0.18359 1.543 0.066406 2.0273 0.65625 1.0781 1.2617 2.2422 2.418 3.457 3.418 0.76172 0.61719 0.95703 1.6914 0.46094 2.543l-2.7344 4.75 0.074219 0.19531c2.8633 0.30859 5.6836-0.66797 7.7266-2.6797 0.5-0.53516 1.3281-0.73437 2.0742-0.48437 1.375 0.51172 2.8086 0.89453 4.2969 1.1523 0.97266 0.17969 1.668 1.0078 1.668 1.9688v5.832l0.54688 0.98047-0.37891-0.86328c2.6758-1.1758 4.6875-3.5508 5.3906-6.3477 0.20703-0.79688 0.82812-1.375 1.6211-1.5117 1.6133-0.26562 3.1367-0.65625 4.5391-1.1641 0.91797-0.33203 1.9531 0.058594 2.4141 0.91016l2.9297 5.0898c-0.007812-0.003906 0.19141 0.007813 0.21094 0.007813 1.7266-2.3516 2.2852-5.4414 1.4961-8.2617-0.24219-0.76172 0.015625-1.6016 0.66797-2.1094 1.2188-1.0117 2.3281-2.1055 3.2734-3.2227 0.67578-0.75 1.707-0.91406 2.5352-0.42969l5.1484 2.9805 1.1328 0.003906-0.9375-0.10156c0.32422-2.9219-0.74219-5.875-2.8477-7.8945-0.60156-0.57031-0.79688-1.4297-0.48438-2.1914 0.55469-1.4453 0.98438-2.9375 1.2656-4.4219 0.17969-0.95703 1.0039-1.6523 1.9648-1.6523h5.9258l1-0.54688-0.86328 0.37891c-0.35547-0.8125-0.83984-1.5938-1.4023-2.2578-0.33594-0.39844-0.28516-0.99219 0.11328-1.3281 0.39844-0.33203 0.99219-0.28516 1.3281 0.11328 0.6875 0.8125 1.2578 1.7305 1.6914 2.7227 0.26953 0.62109 0.20313 1.3281-0.16797 1.8945-0.37891 0.57422-1.0117 0.91406-1.6953 0.91406h-5.9258c-0.41406 1.7148-0.875 3.3164-1.4766 4.8867 2.5625 2.5547 3.8398 6.0938 3.4531 9.5938-0.082031 0.68359-0.49609 1.2695-1.1016 1.5781-0.60547 0.30469-1.3203 0.28906-1.9062-0.046874l-5.1562-2.9844c-1.1641 1.2227-2.3516 2.3906-3.6797 3.4961 0.91406 3.5078 0.24219 7.2031-1.8242 10.02-0.39453 0.53906-1.043 0.83203-1.707 0.82031-0.68359-0.03125-1.3008-0.39844-1.6562-0.98438l-2.9531-5.1289c-1.6328 0.49219-3.2734 0.91406-4.9922 1.1953-0.94531 3.4688-3.3594 6.3164-6.5664 7.7266-0.24609 0.089844-0.51953 0.14453-0.78516 0.14453z"/>
      <path d="m42.082 79.25c-10.648 0-19.391-8.6562-19.492-19.293-0.003906-0.51953 0.41406-0.94531 0.93359-0.95312 0.57422 0.042969 0.94922 0.41406 0.95312 0.93359 0.089844 9.6055 7.9844 17.422 17.605 17.422 9.6172 0 17.516-7.8164 17.605-17.426 0.003906-0.51953 0.42578-0.93359 0.94531-0.93359h0.007813c0.51953 0.003906 0.9375 0.42969 0.93359 0.95312-0.097657 10.641-8.8438 19.297-19.492 19.297z"/>
      <path d="m42.082 72.91c-7.1484 0-13.051-5.8086-13.152-12.949-0.007813-0.51953 0.41016-0.94922 0.92969-0.95703 0.54297-0.0625 0.94922 0.40625 0.95703 0.92969 0.085938 6.1133 5.1406 11.09 11.266 11.09s11.176-4.9766 11.262-11.09l0.003906-0.17578c0-0.51953 0.42188-0.94531 0.94531-0.94531 0.51953 0 0.94531 0.42188 0.94531 0.94531v0.1875c-0.10547 7.1562-6.0039 12.965-13.156 12.965z"/>
      <path d="m84.895 26.438c-0.96094 0-1.8984-0.25391-2.7109-0.73438l-14.348-8.3164c-0.55469-0.32812-1.1914-0.41797-1.8125-0.25781-0.61719 0.16406-1.1406 0.55859-1.4727 1.1133l-3.3203 5.6016c-0.26562 0.44922-0.84375 0.59766-1.293 0.33203s-0.59766-0.84375-0.33203-1.293l3.3203-5.6016c0.58594-0.98438 1.5156-1.6836 2.6133-1.9727 1.1094-0.29297 2.2617-0.12891 3.2461 0.45703l14.348 8.3164c1.6406 0.97656 3.9766 0.30859 4.8867-1.3867 0.91406-1.707 0.3125-3.7852-1.3672-4.7305l-17.32-9.7734c-5.4688-3.0859-12.297-1.3008-15.543 4.0625l-4.5273 7.5273c-0.26953 0.44531-0.85156 0.58984-1.293 0.32031-0.44531-0.26953-0.58984-0.84766-0.32031-1.293l4.5273-7.5273c3.7734-6.2422 11.719-8.3242 18.082-4.7305l17.32 9.7734c2.582 1.4531 3.5078 4.6445 2.1055 7.2656-0.94141 1.7539-2.7773 2.8477-4.7891 2.8477z"/>
      <path d="m86.039 60.898h-78.602c-2.0234 0-3.668-1.6445-3.668-3.668l0.019531-1.8555c0.64063-21.047 17.617-37.508 38.648-37.508 19.84 0 36.203 14.668 38.402 34.266h5.082c2.457 0 4.4766 1.9648 4.5 4.375 0 1.1602-0.45312 2.2578-1.2695 3.1016-0.86719 0.83594-1.9648 1.2891-3.1133 1.2891zm-43.605-41.148c-20.008 0-36.156 15.66-36.762 35.652l-0.019531 1.8281c0 0.98438 0.80078 1.7812 1.7812 1.7812h78.602c0.65625 0 1.2891-0.26172 1.7812-0.73828 0.45703-0.46875 0.71875-1.1016 0.71875-1.7578-0.015625-1.375-1.1875-2.5-2.6133-2.5h-5.9375c-0.48828 0-0.89453-0.37109-0.94141-0.85938-1.7188-19.047-17.461-33.406-36.609-33.406zm21.215 34.477h-42.137c-0.43359 0-0.83984-0.1875-1.1133-0.51562-0.27734-0.33203-0.39453-0.77344-0.31641-1.2109 1.8945-10.949 11.359-18.898 22.508-18.898 11.137 0 20.594 7.9492 22.488 18.898 0.078125 0.43359-0.039063 0.875-0.32031 1.207-0.27344 0.33203-0.67969 0.51953-1.1094 0.51953zm-0.42969-1.4023v0zm-41.277 0zm0.085938-0.48438h41.102c-1.9297-9.7969-10.492-16.852-20.539-16.852-10.062 0-18.633 7.0586-20.562 16.852z"/>
    </symbol>

    <symbol id="icon-clamps" viewBox="-5.0 -10.0 110.0 135.0">
      <path d="m62.148 51.395v-9.5508h-3.2617c-1.0781 0-1.9531-0.875-1.9531-1.9531v-3.0938h-9.8164c-4.3125 0-7.8086 3.4961-7.8086 7.8086v30.941c0 4.3125 3.4961 7.8086 7.8086 7.8086h9.8164v-3.0938c0-1.0781 0.875-1.9531 1.9531-1.9531h10.43c1.0781 0 1.9531 0.875 1.9531 1.9531v13.457c0 1.0781-0.875 1.9531-1.9531 1.9531h-22.195c-5.3398 0-10.461-2.1211-14.234-5.8945-3.7734-3.7734-5.8945-8.8945-5.8945-14.234v-30.93c0-5.3398 2.1211-10.461 5.8945-14.234 3.7734-3.7734 8.8945-5.8945 14.234-5.8945h15.027v-16.281h-4.9727c-1.0781 0-1.9531-0.875-1.9531-1.9531s0.875-1.9531 1.9531-1.9531h13.848c1.0781 0 1.9531 0.875 1.9531 1.9531s-0.875 1.9531-1.9531 1.9531h-4.9727v16.281h3.2617c1.0781 0 1.9531 0.875 1.9531 1.9531v13.457c0 1.0781-0.875 1.9531-1.9531 1.9531h-3.2617v9.5508h3.2617c1.0781 0 1.9531 0.875 1.9531 1.9531v6.7305c0 1.0781-0.875 1.9531-1.9531 1.9531h-10.43c-1.0781 0-1.9531-0.875-1.9531-1.9531v-6.7305c0-1.0781 0.875-1.9531 1.9531-1.9531h3.2617zm1.9531 3.9062h-3.2617v2.8242h6.5273v-2.8242zm-3.2617 30.008v6.457h6.5273v-9.5508h-6.5273zm6.5273-50.465v-6.457h-6.5273v9.5508h6.5234v-3.0938zm-10.43-6.457h-9.8125c-4.3047 0-8.4297 1.7109-11.473 4.7539-3.043 3.043-4.7539 7.168-4.7539 11.473v30.93c0 4.3047 1.7109 8.4297 4.7539 11.473 3.043 3.043 7.168 4.7539 11.473 4.7539h9.8125v-4.5039h-9.8164c-6.4688 0-11.715-5.2461-11.715-11.715v-30.941c0-6.4688 5.2461-11.715 11.715-11.715h9.8164z" fill-rule="evenodd"/>
    </symbol>
  </defs>
</svg>