<svg xmlns="http://www.w3.org/2000/svg" version="1.1" viewBox="-5.0 -10.0 110.0 135.0">
    <g>
        <path d="m95.824 50.457c0.25391-0.49219 0.058593-1.0938-0.43359-1.3477-0.49219-0.25-1.0938-0.058594-1.3438 0.43359l-17.566 34.281h-69.777l29.738-58.047c0.25-0.49219 0.058594-1.0938-0.43359-1.3477-0.49219-0.25-1.0938-0.054688-1.3477 0.43359l-30.484 59.504c-0.003906 0.011718-0.003906 0.023437-0.011719 0.035156-0.027343 0.058594-0.039062 0.125-0.054687 0.19141s-0.039063 0.12891-0.039063 0.19531c0 0.011719-0.007812 0.023438-0.007812 0.035157v11.23c0 0.55078 0.44922 1 1 1h72.027c0.011718 0 0.023437-0.007813 0.039062-0.007813 0.10156-0.003906 0.19922-0.027344 0.29297-0.058594 0.039063-0.015625 0.078125-0.03125 0.11719-0.050781 0.070313-0.035156 0.13281-0.078125 0.19531-0.12891 0.027344-0.023438 0.058594-0.039063 0.082031-0.066406 0.066406-0.066407 0.12109-0.14453 0.16797-0.23438l0.027344-0.054687c0.003906-0.003906 0.003906-0.011719 0.007812-0.015625l17.805-34.75c0.25391-0.49219 0.058593-1.0938-0.43359-1.3438-0.49219-0.25391-1.0938-0.058594-1.3438 0.43359l-15.953 31.125v-6.8438zm-89.758 35.367h70.027v9.2305h-70.027z"/>
        <path d="m95.391 24.434c-0.48828-0.25-1.0938-0.058594-1.3438 0.43359l-24.211 47.246-0.003907-6.8477 25.992-50.723c0.25391-0.49219 0.058593-1.0938-0.43359-1.3477-0.49219-0.25-1.0938-0.058593-1.3438 0.43359l-25.828 50.406h-44.48l25.359-49.492c0.25-0.49219 0.058594-1.0938-0.43359-1.3477-0.49219-0.25-1.0938-0.058593-1.3477 0.43359l-26.105 50.945c-0.007813 0.015625-0.007813 0.03125-0.011719 0.046875-0.019531 0.042968-0.027344 0.09375-0.039063 0.14062-0.023437 0.082031-0.046875 0.16016-0.050781 0.24219 0 0.011719-0.003906 0.019532-0.003906 0.027344v11.23c0 0.55078 0.44922 1 1 1h46.727c0.023438 0 0.042969-0.011719 0.066407-0.011719 0.085937-0.007812 0.17187-0.023438 0.25391-0.050781 0.046875-0.015625 0.089844-0.035157 0.13281-0.054688 0.0625-0.03125 0.11719-0.070312 0.17188-0.11328 0.035157-0.027344 0.070313-0.046875 0.10156-0.082031 0.0625-0.066407 0.12109-0.14453 0.16406-0.23047l0.023438-0.046875c0.003906-0.007813 0.007812-0.015625 0.011718-0.023437l26.066-50.867c0.25-0.49609 0.054687-1.0977-0.43359-1.3477zm-72.285 41.602h44.727v9.2305h-44.727z"/>
        <path d="m38.301 44.645c-0.027343 0.0625-0.039062 0.12891-0.054687 0.19531-0.015625 0.0625-0.035156 0.125-0.039063 0.19141 0 0.011719-0.007812 0.023438-0.007812 0.035156v11.23c0 0.55078 0.44922 1 1 1h21.43c0.011719 0 0.019532-0.007813 0.03125-0.007813 0.10547-0.003906 0.20703-0.027343 0.30469-0.0625 0.035156-0.011718 0.070312-0.027343 0.10547-0.042968 0.078126-0.039063 0.15234-0.085938 0.21875-0.14453 0.019532-0.015624 0.042969-0.03125 0.058594-0.046874 0.066406-0.070313 0.125-0.14844 0.17188-0.23828l21.062-41.121c0.25391-0.49219 0.058594-1.0938-0.43359-1.3477-0.49219-0.25-1.0938-0.054687-1.3438 0.43359l-19.176 37.43v-6.8438l20.953-40.906c0.25391-0.49219 0.058594-1.0938-0.43359-1.3477-0.49219-0.25-1.0938-0.054687-1.3438 0.43359l-20.789 40.582h-19.18l20.316-39.668c0.25391-0.49219 0.058594-1.0938-0.43359-1.3477-0.49219-0.25-1.0938-0.054687-1.3438 0.43359l-21.062 41.121c-0.007812 0.015625-0.007812 0.027343-0.011719 0.039062zm21.328 10.652h-19.43v-9.2305h19.43z"/>
    </g>
    <text x="0.0" y="117.5" font-size="5.0" font-weight="bold" font-family="Arbeit Regular, Helvetica, Arial-Unicode, Arial, Sans-serif" fill="#000000">Created by Elena Babushkina</text>
    <text x="0.0" y="122.5" font-size="5.0" font-weight="bold" font-family="Arbeit Regular, Helvetica, Arial-Unicode, Arial, Sans-serif" fill="#000000">from Noun Project</text>
</svg>