<svg xmlns="http://www.w3.org/2000/svg"
    xmlns:xlink="http://www.w3.org/1999/xlink" version="1.1" x="0px" y="0px" viewBox="0 0 100 125" style="enable-background:new 0 0 100 100;" xml:space="preserve">
    <path d="M37.07,89.05C41.36,89.68,45.68,90,50,90s8.64-0.32,12.93-0.95c2.26-0.34,3.96-2.36,3.96-4.7V41.4  c0-2.36-1.66-4.33-3.96-4.7c-1.27-0.2-2.43-0.34-3.55-0.45v-6.59c0-0.04-0.02-0.07-0.02-0.11c0-0.02,0.01-0.05,0-0.07  c0-0.02-0.02-0.03-0.02-0.05c-0.01-0.02-0.02-0.04-0.03-0.06c-0.45-1.27-2.49-1.95-4.32-2.31l-2.6-16.5  C52.34,10.24,52.06,10,51.74,10h-3.48c-0.32,0-0.6,0.24-0.65,0.56l-2.6,16.5c-1.84,0.36-3.87,1.03-4.32,2.31  c-0.01,0.02-0.02,0.04-0.03,0.06c-0.01,0.02-0.02,0.03-0.02,0.05c-0.01,0.02,0,0.05,0,0.07c-0.01,0.04-0.02,0.07-0.02,0.11v6.59  c-1.12,0.11-2.28,0.25-3.55,0.45c-2.29,0.36-3.96,2.34-3.96,4.7v42.95C33.1,86.69,34.81,88.71,37.07,89.05z M48.82,11.32h2.35  l2.54,16.09c-0.41,0.27-1.7,0.66-3.72,0.66c-2.02,0-3.31-0.39-3.72-0.66L48.82,11.32z M45.35,28.34c0.91,0.77,2.97,1.06,4.65,1.06  s3.74-0.29,4.65-1.06c2.02,0.38,3.05,0.94,3.36,1.32c-0.47,0.61-2.64,1.47-6.25,1.69c-0.01,0-0.01,0-0.02,0  c-0.02,0-0.03,0.01-0.05,0.01c-0.53,0.03-1.1,0.05-1.69,0.05s-1.16-0.02-1.69-0.05c-0.02,0-0.03-0.01-0.05-0.01  c-0.01,0-0.01,0-0.02,0c-3.6-0.22-5.77-1.08-6.25-1.69C42.3,29.28,43.33,28.72,45.35,28.34z M58.08,31.21v5.5  c-0.12,0.34-0.86,0.8-2.18,1.18v-5.84C56.75,31.83,57.49,31.55,58.08,31.21z M54.58,32.33v5.86c-0.64,0.12-1.38,0.22-2.18,0.29V32.6  C53.14,32.54,53.88,32.46,54.58,32.33z M51.08,32.69v5.87c-0.36,0.01-0.7,0.03-1.08,0.03s-0.72-0.02-1.08-0.03v-5.87  c0.36,0.01,0.72,0.03,1.08,0.03S50.72,32.7,51.08,32.69z M47.6,32.6v5.87c-0.8-0.07-1.54-0.16-2.18-0.29v-5.86  C46.12,32.46,46.86,32.54,47.6,32.6z M41.92,31.21c0.59,0.34,1.33,0.62,2.18,0.84v5.84c-1.32-0.38-2.06-0.84-2.18-1.18V31.21z   M34.42,41.4c0-1.68,1.22-3.14,2.84-3.39c1.31-0.21,2.5-0.35,3.66-0.46c1.16,1.61,5.33,2.36,9.08,2.36s7.93-0.75,9.08-2.36  c1.15,0.11,2.35,0.25,3.65,0.46c1.62,0.26,2.84,1.72,2.84,3.39v16.19h-6.43c-1.94-3.2-5.4-5.19-9.15-5.19s-7.2,1.98-9.15,5.19h-6.43  V41.4z M34.42,58.9h6.78c0.03,0,0.05-0.01,0.08-0.02c0.05-0.01,0.1-0.01,0.15-0.03c0.03-0.01,0.06-0.03,0.09-0.05  c0.04-0.02,0.09-0.05,0.13-0.08c0.03-0.02,0.05-0.05,0.07-0.08c0.02-0.03,0.05-0.05,0.07-0.08c1.67-2.99,4.81-4.85,8.22-4.85  s6.55,1.86,8.22,4.85c0.01,0.02,0.03,0.03,0.05,0.05c0.04,0.06,0.09,0.11,0.16,0.16c0.03,0.02,0.05,0.04,0.08,0.05  c0.09,0.04,0.18,0.07,0.28,0.08c0,0,0.01,0,0.01,0c0,0,0,0,0,0c0,0,0,0,0,0h6.78v8.39h-6.7c-0.02,0-0.03,0-0.05,0h-0.03  c-0.01,0-0.01,0-0.02,0c-0.08,0-0.15,0.02-0.22,0.04c-0.01,0.01-0.02,0.01-0.04,0.02c-0.06,0.03-0.12,0.07-0.17,0.12  c-0.01,0.01-0.02,0.03-0.04,0.04c-0.03,0.03-0.07,0.06-0.09,0.11c-1.67,2.99-4.81,4.85-8.22,4.85s-6.55-1.86-8.22-4.85  c-0.02-0.04-0.06-0.07-0.09-0.11c-0.01-0.01-0.02-0.03-0.03-0.04c-0.05-0.05-0.11-0.09-0.18-0.12c-0.01,0-0.02-0.01-0.03-0.01  c-0.08-0.03-0.15-0.05-0.24-0.05c0,0-0.01,0-0.01,0h-0.02c-0.02,0-0.05,0-0.07,0h-6.7V58.9z M34.42,68.61h6.44  c1.94,3.2,5.4,5.18,9.14,5.18s7.2-1.98,9.14-5.18h6.44v15.74c0,1.69-1.22,3.15-2.84,3.39c-8.46,1.26-17.03,1.26-25.48,0  c-1.62-0.24-2.84-1.7-2.84-3.39V68.61z"/>
    <path d="M50,69.18c2.24,0,4.05-1.82,4.05-4.05c0-2-3.13-7.22-3.49-7.81c-0.24-0.39-0.89-0.39-1.13,0c-0.36,0.59-3.49,5.81-3.49,7.81  C45.95,67.37,47.76,69.18,50,69.18z M50,58.96c1.23,2.14,2.73,5.11,2.73,6.17c0,1.51-1.23,2.73-2.73,2.73s-2.73-1.23-2.73-2.73  C47.27,64.07,48.77,61.11,50,58.96z"/>
    <text x="0" y="115" fill="#000000" font-size="5px" font-weight="bold" font-family="'Helvetica Neue', Helvetica, Arial-Unicode, Arial, Sans-serif">Created by ainul muttaqin</text>
    <text x="0" y="120" fill="#000000" font-size="5px" font-weight="bold" font-family="'Helvetica Neue', Helvetica, Arial-Unicode, Arial, Sans-serif">from the Noun Project</text>
</svg>