<svg xmlns="http://www.w3.org/2000/svg" version="1.1" viewBox="-5.0 -10.0 110.0 135.0">
    <path d="m22.086 25.703c-0.34766 0-0.68359-0.19531-0.84766-0.52734l-0.88672-1.8125c-0.40234-0.83203-0.45703-1.7734-0.15234-2.6523 0.30469-0.87891 0.92969-1.5859 1.7578-1.9883l6.4375-3.0938c0.8125-0.40625 1.75-0.46875 2.625-0.16797 0.88281 0.30469 1.5898 0.9375 1.9961 1.7812l1.1094 2.2773c0.22656 0.46875 0.035156 1.0312-0.43359 1.2617s-1.0352 0.035156-1.2617-0.43359l-1.1133-2.2812c-0.1875-0.39062-0.50781-0.67969-0.91016-0.81641-0.39062-0.13672-0.8125-0.10547-1.1797 0.078125l-6.4453 3.1016c-0.375 0.17969-0.65625 0.50391-0.79688 0.90625-0.14062 0.40234-0.11719 0.83203 0.066406 1.2109l0.88672 1.8086c0.22656 0.46875 0.035156 1.0312-0.43359 1.2617-0.14062 0.054687-0.28125 0.085937-0.41797 0.085937z"/>
    <path d="m64.969 80.664c-0.35938 0.26563-0.47266 0.69922-0.35938 1.1133 0.88672 3.0938 0.30078 6.4727-1.6406 9.0742-0.45312 0.62109-1.3945 0.56641-1.7734-0.09375l-2.2266-3.8867c0.35938-1.6602 0.32031-3.4141-0.15234-5.0938-0.13281-0.41406 0-0.84766 0.33984-1.1133 1.2266-1.0195 2.3789-2.1328 3.4141-3.3594 0.33984-0.37891 0.88672-0.49219 1.3398-0.22656l3.0391 1.7539c-0.62109 0.64453-1.2812 1.2656-1.9805 1.832z"/>
    <path d="m62.117 92.23c-0.035157 0-0.074219 0-0.10938-0.003907-0.68359-0.035156-1.293-0.41016-1.6289-1l-2.2266-3.8867c-0.11328-0.20312-0.15234-0.44141-0.10156-0.66797 0.33203-1.5352 0.28516-3.1406-0.13672-4.6406-0.24219-0.76172 0.015626-1.6016 0.66797-2.1133 1.2188-1.0117 2.3281-2.1055 3.2734-3.2227 0.67578-0.75 1.707-0.91406 2.5352-0.42969l3.0312 1.75c0.25 0.14453 0.42188 0.39844 0.46094 0.6875 0.039063 0.28906-0.054687 0.57812-0.25781 0.78516-0.70703 0.73047-1.3828 1.3516-2.0664 1.9062-0.011719 0.007813-0.023438 0.019531-0.035156 0.027344-0.027344 0.019531-0.015626 0.074219-0.007813 0.10547 0.96875 3.3828 0.29688 7.082-1.7969 9.8906-0.36328 0.51172-0.96094 0.8125-1.6016 0.8125zm-2.1523-5.5195 2.0508 3.582h0.16406 0.035156c1.7461-2.3359 2.3008-5.4219 1.4922-8.25-0.22266-0.8125 0.046875-1.6328 0.68359-2.1172 0.33984-0.27734 0.67578-0.57031 1.0156-0.89062l-1.9648-1.1328c-1.1641 1.2227-2.3555 2.3906-3.6797 3.4922 0.44141 1.7969 0.51953 3.5898 0.20312 5.3164zm5.0039-6.0469h0.019531z"/>
    <path d="m73.328 70.57c2.3203 2.2461 3.5078 5.4336 3.1328 8.6797-0.074219 0.77344-0.94531 1.1875-1.6055 0.79297l-4.1523-2.4141c-0.11328-2.6797-1.2461-5.207-3.168-7.0547-0.32031-0.30078-0.43359-0.73438-0.26562-1.1523 0.56641-1.4727 1.0195-3.0195 1.3203-4.6055 0.09375-0.50781 0.52734-0.88672 1.0391-0.88672h5.793c-0.50781 0-0.92578 0.37891-1.0195 0.88672-0.32031 1.6055-0.75391 3.1328-1.3398 4.6211-0.14844 0.39453-0.035156 0.84766 0.26562 1.1328z"/>
    <path d="m75.406 81.137c-0.35938 0-0.71484-0.097657-1.0352-0.28906l-4.1406-2.4102c-0.27734-0.16016-0.45312-0.45312-0.46875-0.77734-0.10547-2.4531-1.125-4.7305-2.8828-6.418-0.60156-0.56641-0.79688-1.4297-0.48438-2.1875 0.55469-1.4492 0.98438-2.9414 1.2656-4.4219 0.17969-0.95703 1.0039-1.6562 1.9648-1.6562h5.793c0.51953 0 0.94531 0.42188 0.94531 0.94531 0 0.51953-0.42188 0.94531-0.94531 0.94531-0.4375 1.8438-0.89062 3.4062-1.4805 4.9102 0.003906 0.003906 0.039062 0.10547 0.042969 0.10938 2.5781 2.4961 3.8242 5.9453 3.4141 9.4648-0.066406 0.66406-0.46875 1.2539-1.082 1.5625-0.28906 0.15234-0.59766 0.22266-0.90625 0.22266zm-3.793-4.0742 3.7188 2.1641c0-0.003906 0.19141-0.082031 0.19141-0.085937 0.33984-2.9297-0.69531-5.8047-2.8438-7.8867-0.57813-0.54688-0.77734-1.4102-0.49609-2.1523 0.52344-1.3359 0.93359-2.7188 1.2461-4.2305h-3.7969c-0.41406 1.707-0.875 3.3125-1.4766 4.8867 2.0117 2.0273 3.2188 4.5664 3.457 7.3047z"/>
    <path d="m82.348 62.457c0.30078 0.67969-0.20703 1.4727-0.98047 1.4727h-5.8125c0.77344 0 1.3008-0.79297 1-1.4922-0.39453-0.90625-0.92578-1.7539-1.5469-2.4922h5.7734c0.66016 0.75781 1.1523 1.5859 1.5664 2.5117z"/>
    <path d="m81.367 64.871h-5.8125c-0.51953 0-0.94531-0.42188-0.94531-0.94531 0-0.51953 0.42188-0.94531 0.94531-0.94531l1-0.54688-0.86328 0.37891c-0.35547-0.8125-0.83984-1.5938-1.4023-2.2578-0.23828-0.28125-0.28906-0.67188-0.13672-1.0078 0.15625-0.33203 0.48828-0.54688 0.85547-0.54688h5.7734c0.27344 0 0.53125 0.11719 0.71094 0.32031 0.67969 0.77734 1.2266 1.6484 1.7188 2.7461v0.003906c0.27344 0.60938 0.21484 1.3164-0.15625 1.8828-0.37109 0.57422-1.0039 0.91797-1.6875 0.91797zm-3.7891-1.8867h3.7852l0.98047-0.52734-0.85938 0.38672c-0.34375-0.76562-0.71484-1.3984-1.1484-1.9531h-3.5117c0.21875 0.375 0.41797 0.76562 0.59375 1.168 0.12891 0.29688 0.18359 0.61328 0.16016 0.92578z"/>
    <path d="m80.855 37.605c2.6797 4.6211 4.4336 9.8477 4.9258 15.473h-5.793c-1.168-12.848-8.7734-23.848-19.566-29.719l3.3203-5.6016c0.94531-1.5859 2.9805-2.1328 4.5664-1.1875l1.4727 0.84766c-0.09375 0.11328-0.16797 0.22656-0.24609 0.33984l-3.3203 5.6055c3.0742 1.6602 5.9062 3.7539 8.3945 6.1875z"/>
    <path d="m85.781 54.023h-5.793c-0.48828 0-0.89453-0.37109-0.94141-0.85938-1.1172-12.254-8.2461-23.086-19.078-28.973-0.22656-0.12109-0.39062-0.33203-0.45703-0.57812-0.066407-0.24609-0.03125-0.51172 0.097656-0.73047l3.3203-5.6016c0.58594-0.98438 1.5156-1.6836 2.6133-1.9727 1.1055-0.29297 2.2617-0.12891 3.2461 0.45703l1.4609 0.84375c0.24219 0.14062 0.40625 0.375 0.45703 0.65234 0.050781 0.26562-0.023437 0.54297-0.19922 0.75781-0.070312 0.085938-0.12891 0.17578-0.1875 0.26172l-2.8008 4.7266c2.8086 1.6094 5.4102 3.582 7.75 5.8672l6.332 8.1523c0.027344 0.03125 0.050782 0.066406 0.070313 0.10547 2.8633 4.9375 4.5625 10.277 5.0469 15.863 0.023438 0.26172-0.066406 0.52344-0.24219 0.71875-0.17969 0.19531-0.42969 0.30859-0.69531 0.30859zm-4.9414-1.8867h3.8945c-0.57031-4.918-2.1367-9.6211-4.6641-14l-6.207-8.0078c-2.3633-2.2969-5.1172-4.3281-8.0977-5.9375-0.22656-0.12109-0.39062-0.33203-0.46094-0.57812-0.066407-0.24609-0.03125-0.51172 0.097656-0.73438l3.0469-5.1406-0.61328-0.35547c-0.55469-0.32812-1.1914-0.42187-1.8125-0.25781-0.61719 0.16406-1.1406 0.55859-1.4727 1.1133l-2.8281 4.7695c10.66 6.1445 17.734 16.922 19.117 29.129z"/>
    <path d="m95.289 56.512c0 0.94531-0.39453 1.793-1.0195 2.4336-0.64062 0.62109-1.4922 1-2.4336 1h-5.7891c0.94531 0 1.793-0.37891 2.4336-1 0.62109-0.64062 1-1.4922 1-2.4336-0.019531-1.9258-1.6406-3.4336-3.5469-3.4336h5.793c1.9023 0 3.5469 1.5117 3.5625 3.4336z"/>
    <path d="m91.84 60.891h-5.793c-0.51953 0-0.94531-0.42188-0.94531-0.94531 0-0.51953 0.42188-0.94531 0.94531-0.94531 0.66797 0 1.2812-0.25391 1.7773-0.73438 0.46094-0.47266 0.71484-1.0898 0.71484-1.7578-0.015624-1.3672-1.1836-2.4883-2.6055-2.4883-0.51953 0-0.94531-0.42188-0.94531-0.94531 0-0.51953 0.42188-0.94531 0.94531-0.94531h5.793c2.4609 0 4.4844 1.9609 4.5078 4.3672v0.007812c0 1.1406-0.45703 2.2383-1.2852 3.0898-0.86328 0.84766-1.9609 1.2969-3.1094 1.2969zm-2.1914-1.8867h2.1914c0.66797 0 1.2812-0.25391 1.7773-0.73438 0.46484-0.47656 0.73047-1.1055 0.73437-1.7539-0.015624-1.375-1.1914-2.4961-2.6211-2.4961h-2.1172c0.50391 0.70312 0.80469 1.5586 0.8125 2.4805-0.003906 0.90625-0.27344 1.7695-0.77734 2.5039z"/>
    <path d="m69.801 7.3633c-1.0391-0.58594-2.1328-1.0195-3.2461-1.2812 2.9609-0.69922 6.1875-0.33984 9.0391 1.2812l17.34 9.7734c2.0938 1.1875 2.8672 3.8477 1.7344 6-0.8125 1.5078-2.3594 2.3594-3.9609 2.3594-0.75391 0-1.5273-0.1875-2.2266-0.60547l-0.71875-0.41406c0.43359-0.35937 0.8125-0.8125 1.0938-1.3398 1.1523-2.1523 0.37891-4.8125-1.7344-6z"/>
    <path d="m90.707 26.438c-0.96094 0-1.8984-0.25391-2.7109-0.73438l-0.70703-0.41016c-0.26562-0.15625-0.44141-0.42969-0.46875-0.73828-0.023437-0.30859 0.10156-0.60938 0.33984-0.80469 0.35547-0.29297 0.64453-0.64844 0.86328-1.0586 0.91406-1.707 0.3125-3.7852-1.3672-4.7344l-17.32-9.7734c-0.96484-0.54297-1.9727-0.94531-3-1.1875-0.42578-0.10156-0.72656-0.48047-0.72656-0.91797s0.30078-0.81641 0.72656-0.91797c3.3281-0.78125 6.7812-0.29297 9.7227 1.3828l17.336 9.7734c2.5625 1.4531 3.4844 4.6406 2.1094 7.2617-0.95312 1.7656-2.7891 2.8594-4.7969 2.8594zm-1.4336-2.1953c1.6133 0.73828 3.7109 0.035156 4.5664-1.5547 0.89453-1.7031 0.29688-3.7852-1.3711-4.7305l-17.336-9.7734c-1.3984-0.79688-2.9297-1.2812-4.5078-1.4414l16.961 9.5703c2.582 1.4531 3.5078 4.6445 2.1055 7.2656-0.125 0.23438-0.26562 0.45312-0.41797 0.66406z"/>
    <path d="m39.273 95.203c-0.38672 0-0.77344-0.11328-1.1094-0.33203-0.57031-0.375-0.91016-1-0.91016-1.6758v-5.832c-1.707-0.38672-3.2539-0.80078-4.707-1.3438-2.5703 2.4609-5.9492 3.6367-9.375 3.2617-0.66797-0.066406-1.2539-0.46875-1.5625-1.0781-0.3125-0.61719-0.29297-1.3398 0.054687-1.9414l2.7344-4.75c-1.3281-1.2148-2.5703-2.4453-3.7305-3.8047-3.4414 0.78125-6.9141 0.097657-9.6523-1.9062-0.53906-0.39062-0.83984-1.0234-0.8125-1.6953 0.03125-0.6875 0.40234-1.3125 0.99609-1.668l4.6953-2.6875c-0.58594-1.7461-1.043-3.418-1.3672-5.2617-2.3555-0.76562-4.3164-2.1055-5.7734-3.957-0.32422-0.41016-0.25-1.0039 0.16016-1.3242 0.41016-0.32422 1.0039-0.25 1.3242 0.16016 1.2148 1.5469 2.8516 2.6602 4.7344 3.2266 0.74219 0.21094 1.2734 0.79688 1.4141 1.5664 0.30469 1.7305 0.72656 3.2891 1.293 4.7734 0.35547 0.92578 0.003906 1.9609-0.83984 2.4531l-4.6875 2.6836-0.023438 0.21094c2.2852 1.6719 5.1836 2.2422 7.9531 1.5625 0.76953-0.18359 1.543 0.066406 2.0273 0.65625 1.0781 1.2617 2.2422 2.418 3.457 3.418 0.76172 0.61719 0.95703 1.6914 0.46094 2.543l-2.7344 4.75 0.074219 0.19531c2.8633 0.30859 5.6836-0.66797 7.7266-2.6797 0.5-0.53516 1.3281-0.73437 2.0742-0.48437 1.375 0.51172 2.8086 0.89453 4.2969 1.1523 0.97266 0.17969 1.668 1.0078 1.668 1.9688v5.832l0.54688 0.98047-0.37891-0.86328c2.6758-1.1758 4.6875-3.5508 5.3906-6.3477 0.20703-0.79688 0.82812-1.375 1.6211-1.5117 1.6133-0.26562 3.1367-0.65625 4.5391-1.1641 0.91797-0.33203 1.9531 0.058594 2.4141 0.91016l2.9297 5.0898c-0.007812-0.003906 0.19141 0.007813 0.21094 0.007813 1.7266-2.3516 2.2852-5.4414 1.4961-8.2617-0.24219-0.76172 0.015625-1.6016 0.66797-2.1094 1.2188-1.0117 2.3281-2.1055 3.2734-3.2227 0.67578-0.75 1.707-0.91406 2.5352-0.42969l5.1484 2.9805 1.1328 0.003906-0.9375-0.10156c0.32422-2.9219-0.74219-5.875-2.8477-7.8945-0.60156-0.57031-0.79688-1.4297-0.48438-2.1914 0.55469-1.4453 0.98438-2.9375 1.2656-4.4219 0.17969-0.95703 1.0039-1.6523 1.9648-1.6523h5.9258l1-0.54688-0.86328 0.37891c-0.35547-0.8125-0.83984-1.5938-1.4023-2.2578-0.33594-0.39844-0.28516-0.99219 0.11328-1.3281 0.39844-0.33203 0.99219-0.28516 1.3281 0.11328 0.6875 0.8125 1.2578 1.7305 1.6914 2.7227 0.26953 0.62109 0.20313 1.3281-0.16797 1.8945-0.37891 0.57422-1.0117 0.91406-1.6953 0.91406h-5.9258c-0.41406 1.7148-0.875 3.3164-1.4766 4.8867 2.5625 2.5547 3.8398 6.0938 3.4531 9.5938-0.082031 0.68359-0.49609 1.2695-1.1016 1.5781-0.60547 0.30469-1.3203 0.28906-1.9062-0.046874l-5.1562-2.9844c-1.1641 1.2227-2.3516 2.3906-3.6797 3.4961 0.91406 3.5078 0.24219 7.2031-1.8242 10.02-0.39453 0.53906-1.043 0.83203-1.707 0.82031-0.68359-0.03125-1.3008-0.39844-1.6562-0.98438l-2.9531-5.1289c-1.6328 0.49219-3.2734 0.91406-4.9922 1.1953-0.94531 3.4688-3.3594 6.3164-6.5664 7.7266-0.24609 0.089844-0.51953 0.14453-0.78516 0.14453z"/>
    <path d="m42.082 79.25c-10.648 0-19.391-8.6562-19.492-19.293-0.003906-0.51953 0.41406-0.94531 0.93359-0.95312 0.57422 0.042969 0.94922 0.41406 0.95312 0.93359 0.089844 9.6055 7.9844 17.422 17.605 17.422 9.6172 0 17.516-7.8164 17.605-17.426 0.003906-0.51953 0.42578-0.93359 0.94531-0.93359h0.007813c0.51953 0.003906 0.9375 0.42969 0.93359 0.95312-0.097657 10.641-8.8438 19.297-19.492 19.297z"/>
    <path d="m42.082 72.91c-7.1484 0-13.051-5.8086-13.152-12.949-0.007813-0.51953 0.41016-0.94922 0.92969-0.95703 0.54297-0.0625 0.94922 0.40625 0.95703 0.92969 0.085938 6.1133 5.1406 11.09 11.266 11.09s11.176-4.9766 11.262-11.09l0.003906-0.17578c0-0.51953 0.42188-0.94531 0.94531-0.94531 0.51953 0 0.94531 0.42188 0.94531 0.94531v0.1875c-0.10547 7.1562-6.0039 12.965-13.156 12.965z"/>
    <path d="m84.895 26.438c-0.96094 0-1.8984-0.25391-2.7109-0.73438l-14.348-8.3164c-0.55469-0.32812-1.1914-0.41797-1.8125-0.25781-0.61719 0.16406-1.1406 0.55859-1.4727 1.1133l-3.3203 5.6016c-0.26562 0.44922-0.84375 0.59766-1.293 0.33203s-0.59766-0.84375-0.33203-1.293l3.3203-5.6016c0.58594-0.98438 1.5156-1.6836 2.6133-1.9727 1.1094-0.29297 2.2617-0.12891 3.2461 0.45703l14.348 8.3164c1.6406 0.97656 3.9766 0.30859 4.8867-1.3867 0.91406-1.707 0.3125-3.7852-1.3672-4.7305l-17.32-9.7734c-5.4688-3.0859-12.297-1.3008-15.543 4.0625l-4.5273 7.5273c-0.26953 0.44531-0.85156 0.58984-1.293 0.32031-0.44531-0.26953-0.58984-0.84766-0.32031-1.293l4.5273-7.5273c3.7734-6.2422 11.719-8.3242 18.082-4.7305l17.32 9.7734c2.582 1.4531 3.5078 4.6445 2.1055 7.2656-0.94141 1.7539-2.7773 2.8477-4.7891 2.8477z"/>
    <path d="m86.039 60.898h-78.602c-2.0234 0-3.668-1.6445-3.668-3.668l0.019531-1.8555c0.64063-21.047 17.617-37.508 38.648-37.508 19.84 0 36.203 14.668 38.402 34.266h5.082c2.457 0 4.4766 1.9648 4.5 4.375 0 1.1602-0.45312 2.2578-1.2695 3.1016-0.86719 0.83594-1.9648 1.2891-3.1133 1.2891zm-43.605-41.148c-20.008 0-36.156 15.66-36.762 35.652l-0.019531 1.8281c0 0.98438 0.80078 1.7812 1.7812 1.7812h78.602c0.65625 0 1.2891-0.26172 1.7812-0.73828 0.45703-0.46875 0.71875-1.1016 0.71875-1.7578-0.015625-1.375-1.1875-2.5-2.6133-2.5h-5.9375c-0.48828 0-0.89453-0.37109-0.94141-0.85938-1.7188-19.047-17.461-33.406-36.609-33.406zm21.215 34.477h-42.137c-0.43359 0-0.83984-0.1875-1.1133-0.51562-0.27734-0.33203-0.39453-0.77344-0.31641-1.2109 1.8945-10.949 11.359-18.898 22.508-18.898 11.137 0 20.594 7.9492 22.488 18.898 0.078125 0.43359-0.039063 0.875-0.32031 1.207-0.27344 0.33203-0.67969 0.51953-1.1094 0.51953zm-0.42969-1.4023v0zm-41.277 0zm0.085938-0.48438h41.102c-1.9297-9.7969-10.492-16.852-20.539-16.852-10.062 0-18.633 7.0586-20.562 16.852z"/>
    <text x="0.0" y="117.5" font-size="5.0" font-weight="bold" font-family="Arbeit Regular, Helvetica, Arial-Unicode, Arial, Sans-serif" fill="#000000">Created by Rabiya Anwer</text>
    <text x="0.0" y="122.5" font-size="5.0" font-weight="bold" font-family="Arbeit Regular, Helvetica, Arial-Unicode, Arial, Sans-serif" fill="#000000">from Noun Project</text>
</svg>