<svg xmlns="http://www.w3.org/2000/svg" viewBox="0 0 100 125" x="0px" y="0px">
    <title>Creator Icon_27</title>
    <path d="M69.98535,61.02441a1.25014,1.25014,0,0,0-1.73047-.36279L45.21777,75.70508a1.25027,1.25027,0,0,0-.36328,1.73l8.93066,13.67676A4.95662,4.95662,0,0,0,56.94727,93.27a5.05412,5.05412,0,0,0,1.0498.11133,4.94725,4.94725,0,0,0,2.71484-.8125l16.752-10.93848a4.96864,4.96864,0,0,0,2.15137-3.11768l.01172-.04932a4.97357,4.97357,0,0,0-.71-3.76172Zm7.20117,16.894-.00879.03711a2.48558,2.48558,0,0,1-1.08105,1.58154l-16.752,10.939a2.51714,2.51714,0,0,1-3.46582-.731L47.63184,77.11475,68.5752,63.438l8.248,12.63037A2.48971,2.48971,0,0,1,77.18652,77.91846Z"/>
    <path d="M21.252,12.65674l-.8125,1.38086a1.24958,1.24958,0,0,0,.72559,1.833l2.35938.69141L22.28125,18.6875a1.24991,1.24991,0,0,0,.72754,1.83105l2.35742.69043L24.124,23.3291a1.24943,1.24943,0,0,0,.72656,1.83154l2.36133.68457-1.249,2.12793a1.25043,1.25043,0,0,0,.72461,1.83154l2.3623.69678-1.24414,2.11914a1.25036,1.25036,0,0,0,.72656,1.83252l2.36328.68311-1.248,2.127a1.25,1.25,0,0,0,.72656,1.832l2.36426.68652-1.24707,2.12793a1.24978,1.24978,0,0,0,.72559,1.83154l2.36328.68408-1.25,2.12939a1.25039,1.25039,0,0,0,.72559,1.832l2.36719.68311-1.25293,2.13232a1.25,1.25,0,0,0,.72754,1.833l2.36426.67969-1.249,2.13623a1.2504,1.2504,0,0,0,.72852,1.83057l2.36133.67822-1.24707,2.13477A1.25076,1.25076,0,0,0,39.583,62.3252l2.35645.688-1.24609,2.125a1.2491,1.2491,0,0,0,.72754,1.832l2.36621.68164-1.25,2.1333a1.24878,1.24878,0,0,0,.72754,1.83154l2.40137.6958a1.23011,1.23011,0,0,0,.60742,1.3999,1.20366,1.20366,0,0,0,.58887.15234A1.30361,1.30361,0,0,0,47.97559,73.23a2.18173,2.18173,0,0,0-.77734-2.99756,2.09,2.09,0,0,0-.54492-.23l-1.14941-.33594.63672-1.0874a2.19743,2.19743,0,0,0-.78711-2.99707,2.26327,2.26327,0,0,0-.54492-.22607l-1.14844-.33545.63574-1.084a2.19075,2.19075,0,0,0-.75977-2.98828,1.90116,1.90116,0,0,0-.56836-.23535L41.82031,60.376l.63184-1.08057a2.16652,2.16652,0,0,0,.23633-1.65625,2.202,2.202,0,0,0-1.04687-1.36572,2.09778,2.09778,0,0,0-.5127-.20508l-1.15039-.33691.63477-1.084A2.19892,2.19892,0,0,0,39.832,51.647a2.028,2.028,0,0,0-.54687-.22607l-1.14746-.33545.64063-1.09033a2.20473,2.20473,0,0,0-.78711-2.99219,2.04037,2.04037,0,0,0-.5459-.22461l-1.14844-.33838.6416-1.09326a2.18548,2.18548,0,0,0-1.334-3.21582L34.457,41.79395l.63574-1.085a2.18781,2.18781,0,0,0-.7793-2.99365,2.09345,2.09345,0,0,0-.55273-.23242L32.61426,37.147l.63086-1.07617a2.18506,2.18506,0,0,0-.78223-3.00537,2.05219,2.05219,0,0,0-.54395-.22461l-1.14551-.33594.6416-1.09277a2.19785,2.19785,0,0,0-.791-2.99219,2.17064,2.17064,0,0,0-.584-.23291l-1.11133-.32764.63672-1.084a2.18534,2.18534,0,0,0-.78027-2.998,2.08351,2.08351,0,0,0-.54785-.229l-1.14746-.33643.63379-1.08154A2.19236,2.19236,0,0,0,26.3584,18.895l-1.11133-.32568.63379-1.0835a2.18122,2.18122,0,0,0-.75879-2.98291,2.01151,2.01151,0,0,0-.56543-.2417l-.98437-.28955,6.80859-4.4458a2.513,2.513,0,0,1,3.46582.72754l32.458,49.70752a1.2503,1.2503,0,0,0,2.09375-1.36719L35.94043,8.88623a5.01409,5.01409,0,0,0-6.92676-1.45361l-7.36816,4.81152A1.2472,1.2472,0,0,0,21.252,12.65674Z"/>
    <path d="M69.94141,66.60986a2.18758,2.18758,0,0,0-3.02734-.63672,1.25014,1.25014,0,0,0,1.083,2.23145l5.5791,8.54395L57.80566,87.04688l-5.57812-8.543A1.25027,1.25027,0,0,0,50.624,76.61084a2.18852,2.18852,0,0,0-.64062,3.02979l5.90234,9.03857a2.18926,2.18926,0,0,0,3.02832.62939l16.291-10.6377a2.18846,2.18846,0,0,0,.6377-3.02441Z"/>
    <text x="0" y="115" fill="#000000" font-size="5px" font-weight="bold" font-family="'Helvetica Neue', Helvetica, Arial-Unicode, Arial, Sans-serif">Created by sasicreatives</text>
    <text x="0" y="120" fill="#000000" font-size="5px" font-weight="bold" font-family="'Helvetica Neue', Helvetica, Arial-Unicode, Arial, Sans-serif">from the Noun Project</text>
</svg>