<svg xmlns="http://www.w3.org/2000/svg" version="1.1" viewBox="-5.0 -10.0 110.0 135.0">
    <path d="m41.785 78.297v-6.1328c-0.95312 0.12109-1.875-0.47656-2.1289-1.4336-0.27734-1.0391 0.33984-2.1133 1.3789-2.3906l0.75-0.19922v-6.1328c-0.95312 0.12109-1.875-0.47656-2.1289-1.4336-0.27734-1.0391 0.33984-2.1133 1.3789-2.3906l0.75-0.19922v-6.1328c-0.95312 0.12109-1.875-0.47656-2.1289-1.4336-0.27734-1.0391 0.33984-2.1133 1.3789-2.3906l0.75-0.19922v-6.1328c-0.95312 0.12109-1.875-0.47656-2.1289-1.4336-0.27734-1.0391 0.33984-2.1133 1.3789-2.3906l0.75-0.19922v-6.1328c-0.95312 0.12109-1.875-0.47656-2.1289-1.4336-0.27734-1.0391 0.33984-2.1133 1.3789-2.3906l0.75-0.19922v-9.8828l-5.9883-10.402c-0.34766-0.60547-0.34766-1.3477 0-1.9531 0.34766-0.60156 0.99219-0.97656 1.6914-0.97656h24.992c0.69531 0 1.3398 0.37109 1.6914 0.97656 0.34766 0.60156 0.35156 1.3477 0 1.9531l-5.9883 10.402v5.5078c0.95312-0.12109 1.875 0.47656 2.1289 1.4336 0.27734 1.0391-0.33984 2.1133-1.3789 2.3906l-0.75 0.19922v6.1328c0.95312-0.12109 1.875 0.47656 2.1289 1.4336 0.27734 1.0391-0.33984 2.1133-1.3789 2.3906l-0.75 0.19922v6.1328c0.95312-0.12109 1.875 0.47656 2.1289 1.4336 0.27734 1.0391-0.33984 2.1133-1.3789 2.3906l-0.75 0.19922v6.1328c0.95312-0.12109 1.875 0.47656 2.1289 1.4336 0.27734 1.0391-0.33984 2.1133-1.3789 2.3906l-0.75 0.19922v6.1328c0.95312-0.12109 1.875 0.47656 2.1289 1.4336 0.27734 1.0391-0.33984 2.1133-1.3789 2.3906l-0.75 0.19922v6.1328c0.95312-0.12109 1.875 0.47656 2.1289 1.4336 0.27734 1.0391-0.33984 2.1133-1.3789 2.3906l-0.75 0.19922v9.5312c0 0.51953-0.20703 1.0156-0.57031 1.3789l-6.25 6.25c-0.76172 0.76172-2 0.76172-2.7617 0l-6.2461-6.25c-0.36719-0.36719-0.57031-0.86328-0.57031-1.3789v-5.1523c-0.95312 0.12109-1.875-0.47656-2.1289-1.4336-0.27734-1.0391 0.33984-2.1133 1.3789-2.3906l0.75-0.19922zm12.496-3.3477v-6.1133l-8.5898 2.3008v6.1133zm-8.5898 6.3438v5.3711s4.2969 4.2969 4.2969 4.2969l4.2969-4.2969v-7.6758l-8.5898 2.3008zm8.5898-26.66v-6.1133l-8.5898 2.3008v6.1133zm0-20.316v-6.1133l-8.5898 2.3008v6.1133zm0 10.156v-6.1133l-8.5898 2.3008v6.1133zm0 20.316v-6.1133l-8.5898 2.3008v6.1133zm0-40.633v-7.0547c0-0.34375 0.089844-0.67969 0.26172-0.97266l4.5625-7.9258h-18.238l4.5625 7.9258c0.17187 0.29688 0.26172 0.63281 0.26172 0.97266v9.3594l8.5898-2.3008z" fill-rule="evenodd"/>
    <text x="0.0" y="117.5" font-size="5.0" font-weight="bold" font-family="Arbeit Regular, Helvetica, Arial-Unicode, Arial, Sans-serif" fill="#000000">by Muhammad Nur Auliady Pamungkas</text>
    <text x="0.0" y="122.5" font-size="5.0" font-weight="bold" font-family="Arbeit Regular, Helvetica, Arial-Unicode, Arial, Sans-serif" fill="#000000">from Noun Project</text>
</svg>