<svg xmlns="http://www.w3.org/2000/svg"
    xmlns:xlink="http://www.w3.org/1999/xlink" version="1.1" x="0px" y="0px" viewBox="0 0 100 125" style="enable-background:new 0 0 100 100;" xml:space="preserve">
    <path d="M62.73,14.31l-0.3-0.2c-1.98-1.29-4.96-3.25-9.25-3.85c-3.14-0.44-9.21-0.2-9.47-0.19c-0.32,0.01-0.64,0.14-0.88,0.35  c-0.02,0.02-2.19,1.85-4.41,1.78c-2.25-0.06-4.02-1.58-4.04-1.59c-0.26-0.23-0.6-0.36-0.96-0.36h-5.38c-0.8,0-1.45,0.65-1.45,1.45  v10.34c0,0.8,0.65,1.45,1.45,1.45h5.45c0.32,0,0.63-0.11,0.88-0.3c0.68-0.53,2.07-1.43,3.96-1.38c1.83,0.02,4.1,0.89,5.04,2.78  c0.37,0.74,0.52,1.62,0.44,2.54c0,0.01,0,0.02,0,0.04c0,0.01,0,0.03-0.01,0.04l-2,57.47c-0.05,1.41,0.46,2.75,1.44,3.76  c0.98,1.01,2.3,1.57,3.71,1.57h6.25c1.41,0,2.73-0.56,3.71-1.57c0.98-1.02,1.49-2.35,1.44-3.76l-2-57.47c0,0,0-0.01,0-0.01  c0,0,0-0.01,0-0.01c-0.1-2.12,0.27-4.54,0.77-5.01c0.04,0.01,0.09,0.01,0.14,0.02c2.34,0.38,5.03,2,8.46,5.09l5.24,4.85  c0.27,0.25,0.63,0.38,0.98,0.38c0.2,0,0.39-0.04,0.58-0.12c0.53-0.23,0.87-0.75,0.87-1.32v-2.58c0-1.59-0.43-3.13-1.25-4.45  C69.68,20.05,66.51,16.78,62.73,14.31z M55.48,84.77c0.02,0.62-0.2,1.2-0.63,1.65c-0.43,0.45-1.01,0.69-1.63,0.69h-6.25  c-0.62,0-1.2-0.25-1.63-0.69c-0.43-0.45-0.66-1.03-0.63-1.65l1.95-56.08h6.88L55.48,84.77C55.48,84.77,55.48,84.77,55.48,84.77z   M67.69,25.14c-3.93-3.53-6.99-5.33-9.94-5.81c-0.22-0.04-0.44-0.07-0.69-0.07c-0.24,0-0.49,0.03-0.77,0.12  c-2.28,0.71-2.78,4.04-2.83,6.41h-6.78c-0.09-0.89-0.34-1.74-0.72-2.51c-1.59-3.19-5.08-4.35-7.59-4.38  c-2.37-0.02-4.25,0.94-5.34,1.68h-3.54v-7.45h3.44c0.87,0.64,2.9,1.88,5.42,1.95c2.63,0.06,5-1.45,5.94-2.14  c1.47-0.05,6.08-0.16,8.49,0.18c3.64,0.51,6.2,2.18,8.06,3.4l0.31,0.2c3.43,2.23,6.3,5.21,8.55,8.83c0.4,0.65,0.66,1.38,0.77,2.15  L67.69,25.14z"/>
    <text x="0" y="115" fill="#000000" font-size="5px" font-weight="bold" font-family="'Helvetica Neue', Helvetica, Arial-Unicode, Arial, Sans-serif">Created by ainul muttaqin</text>
    <text x="0" y="120" fill="#000000" font-size="5px" font-weight="bold" font-family="'Helvetica Neue', Helvetica, Arial-Unicode, Arial, Sans-serif">from the Noun Project</text>
</svg>