<svg xmlns:inkscape="http://www.inkscape.org/namespaces/inkscape"
    xmlns:sodipodi="http://sodipodi.sourceforge.net/DTD/sodipodi-0.dtd"
    xmlns="http://www.w3.org/2000/svg"
    xmlns:svg="http://www.w3.org/2000/svg"
    xmlns:rdf="http://www.w3.org/1999/02/22-rdf-syntax-ns#"
    xmlns:cc="http://creativecommons.org/ns#"
    xmlns:dc="http://purl.org/dc/elements/1.1/" viewBox="0 0 8.995833 11.244792375" version="1.1" x="0px" y="0px">
    <g>
        <path style="color:#000000;paint-order:fill markers stroke;" d="m 0.97972917,-3.3333334e-7 c -0.399132,0 -0.728596,0.32946200333334 -0.728596,0.72859700333334 V 1.8478447 c 0,0.399133 0.329464,0.728078 0.728596,0.728078 H 7.0498102 c 0.399133,0 0.728597,-0.328945 0.728597,-0.728078 v -0.437675 h 0.319858 c 0.06901,0 0.117299,0.04626 0.117299,0.11523 v 1.431356 c 0,0.06897 -0.04829,0.117299 -0.117299,0.117299 h -2.96864 -0.700693 c -0.371626,0 -0.680022,0.306327 -0.680022,0.677956 v 0.8986 c -0.431028,0.117678 -0.751849,0.513866 -0.751849,0.980246 v 2.347527 c 0,0.558239 0.459204,1.01745 1.017452,1.01745 0.558246,0 1.015899,-0.459211 1.015899,-1.01745 v -2.347527 c 0,-0.467079 -0.320294,-0.863743 -0.75185,-0.980762 v -0.898084 c 0,-0.08763 0.06272,-0.14882 0.15037,-0.14882 h 0.700693 2.96864 c 0.352979,0 0.646435,-0.293454 0.646435,-0.646435 v -1.431356 c 0,-0.352982 -0.293456,-0.64436603 -0.646435,-0.64436603 h -0.319858 v -0.152437 c 0,-0.399135 -0.329464,-0.72859700333333 -0.728597,-0.72859700333333 z m 0,0.52965300333334 H 7.0498102 c 0.115164,0 0.198945,0.08382 0.198945,0.198944 V 1.8478447 c 0,0.115124 -0.08378,0.198942 -0.198945,0.198942 H 0.97972917 c -0.115161,0 -0.20101,-0.08382 -0.20101,-0.198942 V 0.72859667 c 0,-0.115127 0.08584,-0.198944 0.20101,-0.198944 z M 4.0145132,5.1446097 c 0.274275,0 0.486247,0.212017 0.486247,0.486247 v 2.347527 c 0,0.27423 -0.211972,0.488313 -0.486247,0.488313 -0.274278,0 -0.488315,-0.214083 -0.488315,-0.488313 v -2.347527 c 0,-0.27423 0.214037,-0.486247 0.488315,-0.486247 z" fill="#000000" fill-rule="evenodd" stroke-width="0.999943" stroke-linecap="round" stroke-linejoin="round"/>
    </g>
    <text x="0" y="23.9958339" fill="#000000" font-size="5px" font-weight="bold" font-family="'Helvetica Neue', Helvetica, Arial-Unicode, Arial, Sans-serif">Created by Alzam</text>
    <text x="0" y="28.9958339" fill="#000000" font-size="5px" font-weight="bold" font-family="'Helvetica Neue', Helvetica, Arial-Unicode, Arial, Sans-serif">from the Noun Project</text>
</svg>