<svg xmlns="http://www.w3.org/2000/svg"
    xmlns:xlink="http://www.w3.org/1999/xlink" version="1.1" x="0px" y="0px" viewBox="0 0 100 125" enable-background="new 0 0 100 100" xml:space="preserve">
    <path d="M81.253,19.483H38.565c-0.857,0-1.552,0.694-1.552,1.552v0.252l-6.376,1.275c-0.724,0.146-1.246,0.782-1.246,1.521v1.776  l-6.376,1.275c-0.725,0.146-1.246,0.782-1.246,1.521v3.021H6.552C5.694,31.679,5,32.373,5,33.23c0,0.858,0.694,1.552,1.552,1.552  h15.217v3.021c0,0.74,0.521,1.376,1.246,1.521l6.376,1.276v1.779c0,0.739,0.521,1.376,1.249,1.521l6.374,1.272v0.252  c0,0.857,0.694,1.552,1.552,1.552h13.696V50c0,0.857,0.694,1.552,1.552,1.552h3.864l4.931,25.861h-1.745  c-0.858,0-1.552,0.693-1.552,1.552c0,0.857,0.693,1.552,1.552,1.552h3.621h14.999h0.246c0.464,0,0.899-0.206,1.193-0.564  c0.298-0.354,0.419-0.824,0.331-1.278l-5.171-27.122h2.482c0.857,0,1.552-0.694,1.552-1.552v-3.021h1.137  C88.832,46.979,95,40.811,95,33.228C95,25.651,88.832,19.483,81.253,19.483z M24.873,36.531v-6.601l4.519-0.906v8.41L24.873,36.531z   M32.495,41.107v-1.778V27.13v-1.775l4.519-0.903v17.56L32.495,41.107z M77.853,77.413H65.769l-4.931-25.861h12.083L77.853,77.413z   M77.013,48.448H55.364v-1.47h21.648V48.448z M81.253,43.875H40.117V22.587h41.136c5.87,0,10.644,4.773,10.644,10.641  C91.896,39.099,87.123,43.875,81.253,43.875z"/>
    <path d="M84.302,27.105H73.631c-0.858,0-1.552,0.694-1.552,1.552c0,0.858,0.693,1.552,1.552,1.552h10.671  c0.857,0,1.552-0.693,1.552-1.552C85.854,27.8,85.159,27.105,84.302,27.105z"/>
    <path d="M84.302,33.203H73.631c-0.858,0-1.552,0.694-1.552,1.552c0,0.858,0.693,1.552,1.552,1.552h10.671  c0.857,0,1.552-0.693,1.552-1.552C85.854,33.897,85.159,33.203,84.302,33.203z"/>
</svg>