<svg xmlns="http://www.w3.org/2000/svg" version="1.1" viewBox="-5.0 -10.0 110.0 135.0">
    <path d="m62.148 51.395v-9.5508h-3.2617c-1.0781 0-1.9531-0.875-1.9531-1.9531v-3.0938h-9.8164c-4.3125 0-7.8086 3.4961-7.8086 7.8086v30.941c0 4.3125 3.4961 7.8086 7.8086 7.8086h9.8164v-3.0938c0-1.0781 0.875-1.9531 1.9531-1.9531h10.43c1.0781 0 1.9531 0.875 1.9531 1.9531v13.457c0 1.0781-0.875 1.9531-1.9531 1.9531h-22.195c-5.3398 0-10.461-2.1211-14.234-5.8945-3.7734-3.7734-5.8945-8.8945-5.8945-14.234v-30.93c0-5.3398 2.1211-10.461 5.8945-14.234 3.7734-3.7734 8.8945-5.8945 14.234-5.8945h15.027v-16.281h-4.9727c-1.0781 0-1.9531-0.875-1.9531-1.9531s0.875-1.9531 1.9531-1.9531h13.848c1.0781 0 1.9531 0.875 1.9531 1.9531s-0.875 1.9531-1.9531 1.9531h-4.9727v16.281h3.2617c1.0781 0 1.9531 0.875 1.9531 1.9531v13.457c0 1.0781-0.875 1.9531-1.9531 1.9531h-3.2617v9.5508h3.2617c1.0781 0 1.9531 0.875 1.9531 1.9531v6.7305c0 1.0781-0.875 1.9531-1.9531 1.9531h-10.43c-1.0781 0-1.9531-0.875-1.9531-1.9531v-6.7305c0-1.0781 0.875-1.9531 1.9531-1.9531h3.2617zm1.9531 3.9062h-3.2617v2.8242h6.5273v-2.8242zm-3.2617 30.008v6.457h6.5273v-9.5508h-6.5273zm6.5273-50.465v-6.457h-6.5273v9.5508h6.5234v-3.0938zm-10.43-6.457h-9.8125c-4.3047 0-8.4297 1.7109-11.473 4.7539-3.043 3.043-4.7539 7.168-4.7539 11.473v30.93c0 4.3047 1.7109 8.4297 4.7539 11.473 3.043 3.043 7.168 4.7539 11.473 4.7539h9.8125v-4.5039h-9.8164c-6.4688 0-11.715-5.2461-11.715-11.715v-30.941c0-6.4688 5.2461-11.715 11.715-11.715h9.8164z" fill-rule="evenodd"/>
    <text x="0.0" y="117.5" font-size="5.0" font-weight="bold" font-family="Arbeit Regular, Helvetica, Arial-Unicode, Arial, Sans-serif" fill="#000000">by Muhammad Nur Auliady Pamungkas</text>
    <text x="0.0" y="122.5" font-size="5.0" font-weight="bold" font-family="Arbeit Regular, Helvetica, Arial-Unicode, Arial, Sans-serif" fill="#000000">from Noun Project</text>
</svg>