<svg xmlns="http://www.w3.org/2000/svg"
    xmlns:xlink="http://www.w3.org/1999/xlink" version="1.1" x="0px" y="0px" viewBox="0 0 100 125" enable-background="new 0 0 100 100" xml:space="preserve">
    <path d="M90.611,17.692c-2.894,0-3.918,6.349-4.246,12.287l-44.016,0.02l-23.822,3.782c-0.754,0.12-1.309,0.769-1.309,1.532  s0.555,1.412,1.309,1.532l24.065,3.801h43.772c0.328,5.94,1.353,12.29,4.246,12.29c3.819,0,4.389-11.042,4.389-17.623  S94.431,17.692,90.611,17.692z M86.227,37.543l-43.392,0.02L28.642,35.31l13.951-2.227h43.634V37.543z M90.611,48.581  c-0.615-2.191-1.281-6.677-1.281-13.268c0-6.589,0.666-11.072,1.281-13.267c0.615,2.192,1.285,6.677,1.285,13.267  C91.896,41.904,91.227,46.39,90.611,48.581z"/>
    <path d="M78.392,47.063c-2.897,0-3.922,6.35-4.249,12.29L30.13,59.37L6.308,63.153C5.555,63.274,5,63.923,5,64.687  s0.555,1.412,1.31,1.533l24.063,3.798h43.771c0.327,5.94,1.352,12.29,4.249,12.29c3.818,0,4.389-11.041,4.389-17.624  C82.78,58.104,82.21,47.063,78.392,47.063z M74.003,66.914l-43.388,0.019l-14.19-2.252l13.947-2.225h43.631V66.914z M78.392,77.958  c-0.615-2.194-1.285-6.68-1.285-13.274c0-6.592,0.67-11.08,1.285-13.271c0.615,2.191,1.285,6.68,1.285,13.271  C79.677,71.278,79.007,75.764,78.392,77.958z"/>
    <text x="0" y="115" fill="#000000" font-size="5px" font-weight="bold" font-family="'Helvetica Neue', Helvetica, Arial-Unicode, Arial, Sans-serif">Created by Anastasia Perdenko</text>
    <text x="0" y="120" fill="#000000" font-size="5px" font-weight="bold" font-family="'Helvetica Neue', Helvetica, Arial-Unicode, Arial, Sans-serif">from the Noun Project</text>
</svg>