<svg xmlns="http://www.w3.org/2000/svg" version="1.1" viewBox="-5.0 -10.0 110.0 135.0">
 <path d="m57.953 15.629c0-0.28906-0.078125-0.53516-0.29297-0.75-0.17969-0.17969-0.42969-0.29297-0.70703-0.29297h-10.18l0.79297-1.4727c0.15234-0.28125 0.27344-0.58984 0.35156-0.90625 0.078125-0.30469 0.11719-0.63281 0.11719-0.97266 0-1.0938-0.44531-2.0859-1.1602-2.8008s-1.707-1.1602-2.8008-1.1602-2.0859 0.44531-2.8008 1.1602c-0.71484 0.71484-1.1602 1.707-1.1602 2.8008 0 0.33984 0.042969 0.66797 0.11719 0.97266 0.078125 0.32031 0.19922 0.625 0.35156 0.90625l0.79297 1.4727h-10.18c-0.27344 0-0.52344 0.11328-0.70703 0.29297-0.21484 0.21484-0.29297 0.46094-0.29297 0.75v2.3711c0 1.3164 0.53125 2.6055 1.4648 3.5273 0.90625 0.90625 2.1562 1.4688 3.5352 1.4688h17.754c1.375 0 2.6289-0.5625 3.5273-1.4648 0.93359-0.93359 1.4688-2.1953 1.4688-3.5352v-2.3711zm-35.516 66.551c-0.55078 0-1-0.44922-1-1 0-0.55078 0.44922-1 1-1h42.879c0.55078 0 1 0.44922 1 1 0 0.55078-0.44922 1-1 1zm0-3.5938c-0.55078 0-1-0.44922-1-1 0-0.55078 0.44922-1 1-1h42.879c0.55078 0 1 0.44922 1 1 0 0.55078-0.44922 1-1 1zm21.641-5.5938c0.55078 0 1 0.44922 1 1 0 0.55078-0.44922 1-1 1h-21.641c-0.55078 0-1-0.44922-1-1 0-0.55078 0.44922-1 1-1zm5.9062-2.9023c-0.55078 0-1-0.44922-1-1 0-0.55078 0.44922-1 1-1h1.7969c0.55078 0 1 0.44922 1 1 0 0.55078-0.44922 1-1 1zm-5.3516 0c-0.55078 0-1-0.44922-1-1 0-0.55078 0.44922-1 1-1h1.7969c0.55078 0 1 0.44922 1 1 0 0.55078-0.44922 1-1 1zm13.324-34.387c0.27344-0.47656 0.88672-0.64062 1.3633-0.36328 0.47656 0.27344 0.64063 0.88672 0.36328 1.3633l-18.988 32.891c-0.27344 0.47656-0.88672 0.64062-1.3633 0.36328-0.47656-0.27344-0.64062-0.88672-0.36328-1.3633zm-21.148 26.297 1.3594 0.78516 1.5703-2.7188-1.3594-0.78516 0.99219-1.7266 1.3633 0.78906 1.5703-2.7188-1.3594-0.78516 0.99219-1.7266 1.3633 0.78906 1.5703-2.7188-1.3633-0.78906 1-1.7266 1.3633 0.78516 1.5703-2.7148-1.3633-0.78906 1-1.7266 1.3633 0.78516 1.5703-2.7188-1.3633-0.78516 0.99219-1.7266 1.3672 0.78906 1.5703-2.7188-1.3633-0.78516 0.99219-1.7266 1.3672 0.78906 0.8125-1.4102c0.13672-0.23438 0.16406-0.51562 0.097656-0.76172s-0.23047-0.47266-0.46484-0.60938l-3.3945-1.9609c-0.23438-0.13672-0.51172-0.16406-0.76562-0.097656-0.24609 0.066406-0.47266 0.23047-0.60938 0.46484l-0.55078 0.95312c-0.20312 0.35547-0.46484 0.65234-0.77734 0.89062-0.30859 0.23828-0.67188 0.41406-1.0703 0.51562-0.40625 0.10547-0.80469 0.125-1.1875 0.070313-0.38672-0.058594-0.76172-0.19531-1.1133-0.40625l-0.22656-0.13672c-3.3281-1.918-7.1172-2.3047-10.559-1.3867-3.4414 0.92188-6.5312 3.1602-8.457 6.4883-1.9219 3.3281-2.3086 7.1211-1.3906 10.566 0.92188 3.4375 3.1523 6.5234 6.4766 8.4492l0.24219 0.13672c0.35547 0.19922 0.66016 0.45703 0.89844 0.76172 0.24219 0.30078 0.41797 0.65625 0.52734 1.0586 0.11328 0.40234 0.14453 0.79297 0.097656 1.1758-0.054687 0.39062-0.18359 0.76562-0.38672 1.1211l-0.55078 0.95703c-0.13672 0.23438-0.16406 0.51172-0.09375 0.75781 0.066406 0.25 0.22656 0.47266 0.46484 0.60938l3.3945 1.957c0.23438 0.13672 0.51172 0.16406 0.76172 0.097657 0.24609-0.066407 0.47266-0.22656 0.60938-0.46484l0.81641-1.4102-1.3633-0.78906 1-1.7266zm-7.1445-2.3711-0.25781-0.14453c-3.8047-2.1992-6.3633-5.7305-7.418-9.668-1.0508-3.9297-0.60547-8.2695 1.5938-12.074 2.1992-3.8086 5.7344-6.3672 9.668-7.4219 3.9336-1.0508 8.2695-0.60547 12.074 1.5938l0.24609 0.14453c0.13281 0.078125 0.25781 0.125 0.37891 0.14062 0.13281 0.019531 0.26562 0.011719 0.40234-0.023438 0.13672-0.035156 0.26172-0.09375 0.35938-0.16797 0.10156-0.074218 0.1875-0.17578 0.26172-0.30078l0.55078-0.95703c0.41406-0.71875 1.082-1.2031 1.8203-1.3984 0.74219-0.19531 1.5586-0.11328 2.2695 0.30078l3.3984 1.9609c0.71875 0.41406 1.2031 1.082 1.3984 1.8203 0.19531 0.74219 0.10938 1.5547-0.30078 2.2695l-18.02 31.215c-0.41406 0.71484-1.082 1.1953-1.8203 1.3945-0.64844 0.17188-1.3555 0.12891-2-0.16406l-3.6641-2.0938c-0.71875-0.41406-1.1992-1.082-1.3984-1.8242-0.19922-0.73828-0.11328-1.5586 0.29688-2.2734l0.55078-0.95312c0.070312-0.12109 0.11719-0.24609 0.13281-0.37109 0.011719-0.12891 0-0.26562-0.035156-0.40234-0.035156-0.13281-0.097656-0.25391-0.17578-0.35547-0.074218-0.097656-0.17969-0.18359-0.30469-0.25391zm3.1797-5.1953-0.44141-0.24219c-2.2461-1.2969-3.7852-3.3867-4.4648-5.7227s-0.50781-4.9219 0.66016-7.2227l0.43359-0.76562c1.418-2.2734 3.5977-3.7539 6-4.332 2.3945-0.57813 5.0156-0.25391 7.3203 1.0742l0.31641 0.19141c0.67578 0.43359 1.125 1.0938 1.3008 1.8203 0.17578 0.72266 0.082031 1.5156-0.31641 2.207l-6.832 11.828c-0.40234 0.69141-1.0391 1.168-1.7539 1.3789-0.71875 0.21094-1.5156 0.15234-2.2227-0.21484zm0.55078-1.9688 0.36328 0.19531c0.24609 0.125 0.51563 0.14453 0.75391 0.074219 0.23438-0.070313 0.45312-0.23047 0.58203-0.46094l6.832-11.832c0.13281-0.23047 0.16406-0.5 0.10547-0.74219-0.054688-0.23438-0.19922-0.44922-0.41406-0.59375l-0.26563-0.16016c-1.8477-1.0664-3.9414-1.3281-5.8516-0.86719-1.9062 0.45703-3.6406 1.6367-4.7734 3.4492l-0.34766 0.60938c-0.93359 1.8359-1.0703 3.9023-0.52734 5.7695 0.53906 1.8594 1.7617 3.5234 3.543 4.5547zm48.16 5.4414 1.168-0.67578-3.0664-5.3086-1.168 0.67188c1.0234 1.7695 2.043 3.5391 3.0664 5.3086zm-2.7578-0.79297-16.355 9.4453 1.0352 1.793 6.0195-3.4766c2.75-1.9375 7.2734-4.1992 10.336-5.9688l-1.0352-1.7891zm-17.355 7.7148 16.359-9.4453-1.0352-1.793c-5.4453 3.1562-10.906 6.2969-16.355 9.4453l1.0352 1.7891zm19.941-13.902 3.0664 5.3086 0.94922-0.54688c0.71094-0.41016 1.1953-1.082 1.3945-1.8242 0.19922-0.74219 0.11719-1.5664-0.29297-2.2773l-0.0625-0.10547c-0.41406-0.71484-1.082-1.1953-1.8242-1.3945-0.74219-0.19922-1.5664-0.11719-2.2773 0.29297l-0.94922 0.55078zm-22.227 13.934-1.4766 3.293 3.5898 0.36719c-0.70703-1.2188-1.4102-2.4375-2.1133-3.6562zm3.8516 5.8398-6.9023-0.70703c-0.10156-0.011719-0.20703-0.039063-0.30469-0.082032-0.50391-0.22266-0.72656-0.8125-0.50391-1.3164l2.8125-6.2734c0.082031-0.22266 0.23438-0.38672 0.43359-0.51562l10.531-6.082v-33.168h-10.82c-0.11328 0.13281-0.23047 0.26172-0.35547 0.38281-1.2734 1.2734-3.0234 2.0586-4.9453 2.0586h-17.754c-1.9219 0-3.6719-0.78516-4.9375-2.0547-0.125-0.125-0.24609-0.25391-0.35938-0.38672h-10.82v64.215h49.992v-19.363l-5.4375 3.1367c-0.18359 0.11328-0.39453 0.17188-0.63281 0.14844zm25.215-20.109c0.69141 1.1914 0.82812 2.5547 0.5 3.7891-0.33203 1.2383-1.1328 2.3477-2.3242 3.0352l-9.3516 5.3984v26.918c0 1.3711-0.5625 2.6211-1.4688 3.5273-0.91016 0.91016-2.1602 1.4727-3.5312 1.4727h-55.93c-1.3711 0-2.6211-0.5625-3.5273-1.4688-0.91016-0.91016-1.4727-2.1602-1.4727-3.5312v-70.129c0-1.3711 0.5625-2.6211 1.4688-3.5273 0.91016-0.91016 2.1602-1.4727 3.5312-1.4727h12.25c0.14844-0.43359 0.39844-0.82031 0.71484-1.1406 0.54297-0.54297 1.293-0.87891 2.1211-0.87891h7.0742c-0.10156-0.4375-0.15625-0.89062-0.15625-1.3516 0-1.6445 0.66797-3.1367 1.7461-4.2148 1.0781-1.0781 2.5703-1.7461 4.2148-1.7461s3.1367 0.66797 4.2148 1.7461 1.7461 2.5703 1.7461 4.2148c0 0.46094-0.054688 0.91406-0.15625 1.3516h7.0742c0.82812 0 1.5781 0.33594 2.1211 0.87891 0.31641 0.31641 0.56641 0.70703 0.71484 1.1406h12.254c1.3711 0 2.6211 0.5625 3.5273 1.4688 0.91016 0.91016 1.4727 2.1602 1.4727 3.5312v31.523l4.2891-2.4766c1.1914-0.6875 2.5586-0.82813 3.793-0.49609 1.2344 0.32812 2.3477 1.1328 3.0352 2.3242l0.0625 0.10938zm-13.176 13.379-3.9688 2.2891v21.52c0 0.55078-0.44922 1-1 1h-51.992c-0.55078 0-1-0.44922-1-1v-66.215c0-0.55078 0.44922-1 1-1h10.605c-0.3125-0.79297-0.48828-1.6562-0.48828-2.5547v-1.3984h-12.086c-0.82422 0-1.5781 0.33594-2.1211 0.87891-0.53906 0.54297-0.87891 1.2969-0.87891 2.1211v70.129c0 0.82422 0.33594 1.5781 0.87891 2.1211 0.54297 0.53906 1.2969 0.87891 2.1211 0.87891h55.93c0.82422 0 1.5781-0.33594 2.1211-0.87891 0.53906-0.54297 0.87891-1.293 0.87891-2.1211zm-3.9688-9.3945 3.9688-2.2891v-32.68c0-0.82422-0.33594-1.5781-0.87891-2.1211-0.54297-0.53906-1.293-0.87891-2.1211-0.87891h-12.086v1.3984c0 0.89844-0.17188 1.7617-0.48828 2.5547h10.605c0.55078 0 1 0.44922 1 1zm-26.996-46.363c0.80469 0 1.5312 0.32812 2.0547 0.85156 0.52344 0.53125 0.85156 1.2578 0.85156 2.0586 0 0.80469-0.32812 1.5312-0.85156 2.0547-0.52344 0.52344-1.2539 0.85156-2.0547 0.85156-0.79688 0-1.5273-0.32812-2.0547-0.85156-0.52734-0.52344-0.85547-1.2539-0.85547-2.0547 0-0.79688 0.32812-1.5273 0.85156-2.0547 0.53125-0.52734 1.2578-0.85547 2.0586-0.85547zm0.64453 2.2656c-0.16406-0.16016-0.39453-0.26172-0.64453-0.26172-0.25391 0-0.48047 0.10156-0.64453 0.26172-0.16016 0.16406-0.26172 0.39063-0.26172 0.64453 0 0.25 0.10156 0.47656 0.26562 0.64062 0.16016 0.16406 0.39062 0.26562 0.64062 0.26562s0.47656-0.10156 0.64062-0.26562c0.16406-0.16406 0.26562-0.39062 0.26562-0.64062 0-0.25391-0.10156-0.48047-0.26172-0.64453zm3.6836 7.3203h4.4922v2h-4.4922zm-13.152 0h4.4922v2h-4.4922z"/>
<text x="0.0" y="117.5" font-size="5.0" font-weight="bold" font-family="Arbeit Regular, Helvetica, Arial-Unicode, Arial, Sans-serif" fill="#000000">Created by waqiahtul mukarromah</text><text x="0.0" y="122.5" font-size="5.0" font-weight="bold" font-family="Arbeit Regular, Helvetica, Arial-Unicode, Arial, Sans-serif" fill="#000000">from Noun Project</text></svg>